<svg width="16" height="16" viewBox="0 0 16 16" fill="none" xmlns="http://www.w3.org/2000/svg">
<path d="M6.13234 9.85332L7.85234 11.36C7.93234 11.4333 8.059 11.4333 8.139 11.36L9.859 9.85332C10.3057 9.45998 10.3657 8.79332 9.99234 8.32665C9.619 7.85998 8.939 7.77332 8.46567 8.13332L7.999 8.49332L7.52567 8.13998C7.04567 7.77998 6.37234 7.86665 5.999 8.33332C5.62567 8.79332 5.68567 9.46665 6.13234 9.85332Z" stroke="#554766" stroke-linecap="round" stroke-linejoin="round"/>
<path d="M14.6654 7.33337V11.3334C14.6654 14 13.9987 14.6667 11.332 14.6667H4.66536C1.9987 14.6667 1.33203 14 1.33203 11.3334V4.66671C1.33203 2.00004 1.9987 1.33337 4.66536 1.33337H5.66536C6.66536 1.33337 6.88536 1.62671 7.26536 2.13337L8.26536 3.46671C8.5187 3.80004 8.66536 4.00004 9.33203 4.00004H11.332C13.9987 4.00004 14.6654 4.66671 14.6654 7.33337Z" stroke="#554766" stroke-miterlimit="10"/>
</svg>
