<svg width="64" height="65" viewBox="0 0 64 65" fill="none" xmlns="http://www.w3.org/2000/svg">
<path d="M56.8668 23.4492C57.6646 23.1588 58.5512 23.5693 58.7973 24.3819C60.4896 29.9674 60.3974 35.9566 58.5118 41.507C56.4609 47.5436 52.4113 52.6996 47.0325 56.1225C41.6537 59.5454 35.2679 61.0301 28.9308 60.3313C22.5936 59.6324 16.6848 56.7918 12.1811 52.2791C7.67752 47.7664 4.84878 41.8518 4.16266 35.5133C3.47653 29.1748 4.97411 22.7919 8.40778 17.42C11.8414 12.0481 17.0055 8.00891 23.0463 5.97018C28.6004 4.09569 34.5898 4.01557 40.172 5.71903C40.984 5.96684 41.3927 6.85419 41.1007 7.65143C40.8087 8.44866 39.9268 8.85337 39.1131 8.61106C34.19 7.14509 28.9202 7.23275 24.0295 8.88333C18.652 10.6982 14.055 14.2939 10.9983 19.0759C7.94174 23.858 6.60861 29.5399 7.21939 35.1824C7.83018 40.8249 10.3483 46.09 14.3574 50.1072C18.3665 54.1244 23.6265 56.6531 29.2678 57.2752C34.909 57.8973 40.5937 56.5756 45.3818 53.5286C50.17 50.4816 53.7749 45.8917 55.6006 40.5179C57.261 35.6306 57.3593 30.361 55.9032 25.4349C55.6625 24.6208 56.069 23.7396 56.8668 23.4492Z" fill="#9453FF"/>
<path d="M49.3562 26.1829C50.1502 25.8939 51.0342 26.3022 51.2617 27.116C52.3436 30.9863 52.2373 35.106 50.937 38.9335C49.4721 43.2455 46.5795 46.9283 42.7375 49.3732C38.8955 51.8181 34.3342 52.8787 29.8077 52.3795C25.2812 51.8803 21.0606 49.8513 17.8437 46.6279C14.6268 43.4046 12.6062 39.1799 12.1162 34.6524C11.6261 30.1249 12.6958 25.5657 15.1484 21.7286C17.601 17.8915 21.2897 15.0064 25.6045 13.5501C29.4346 12.2575 33.5545 12.1595 37.4227 13.2492C38.236 13.4783 38.6426 14.3631 38.352 15.1566C38.0614 15.95 37.1837 16.3504 36.3673 16.1325C33.1568 15.2758 29.7527 15.3796 26.583 16.4494C22.9283 17.6828 19.804 20.1266 17.7266 23.3766C15.6492 26.6266 14.7432 30.4883 15.1583 34.3231C15.5734 38.1579 17.2848 41.7362 20.0095 44.4664C22.7342 47.1966 26.3091 48.9152 30.1431 49.338C33.9771 49.7608 37.8405 48.8626 41.0947 46.7917C44.3489 44.7209 46.7989 41.6015 48.0397 37.9492C49.1159 34.7817 49.2265 31.3778 48.3762 28.1656C48.16 27.3487 48.5622 26.4719 49.3562 26.1829Z" fill="#9453FF"/>
<path d="M41.9018 28.896C42.6609 28.6197 43.5098 29.0103 43.6917 29.7974C44.1925 31.9636 44.0836 34.2368 43.3622 36.3601C42.4832 38.9473 40.7477 41.157 38.4425 42.6239C36.1373 44.0909 33.4005 44.7272 30.6846 44.4277C27.9687 44.1282 25.4363 42.9108 23.5062 40.9768C21.5761 39.0427 20.3637 36.5079 20.0697 33.7914C19.7756 31.0749 20.4175 28.3394 21.889 26.0372C23.3606 23.7349 25.5738 22.0038 28.1627 21.1301C30.2875 20.413 32.5609 20.3086 34.7261 20.8137C35.5128 20.9973 35.9017 21.8469 35.6239 22.6054C35.346 23.364 34.5061 23.741 33.7128 23.5885C32.1814 23.2942 30.5913 23.398 29.0982 23.9019C27.1404 24.5626 25.4667 25.8717 24.3539 27.6127C23.2411 29.3537 22.7557 31.4223 22.9781 33.4766C23.2005 35.5309 24.1172 37.4477 25.5768 38.9103C27.0364 40.3728 28.9515 41.2934 31.0053 41.5199C33.0591 41.7464 35.1287 41.2652 36.8719 40.1559C38.6152 39.0466 39.9276 37.3755 40.5923 35.4191C41.0992 33.927 41.2062 32.3371 40.9149 30.8051C40.7641 30.0115 41.1427 29.1723 41.9018 28.896Z" fill="#9453FF"/>
<path d="M32 32.5L42 22.5M42 22.5V16.5L50 8.5V14H56L47.5 22.5H42Z" stroke="#9453FF" stroke-width="3" stroke-linecap="round" stroke-linejoin="round"/>
</svg>
