<svg width="16" height="16" viewBox="0 0 16 16" fill="none" xmlns="http://www.w3.org/2000/svg">
<path d="M5.66536 12.6667H5.33203C2.66536 12.6667 1.33203 12 1.33203 8.66671V5.33337C1.33203 2.66671 2.66536 1.33337 5.33203 1.33337H10.6654C13.332 1.33337 14.6654 2.66671 14.6654 5.33337V8.66671C14.6654 11.3334 13.332 12.6667 10.6654 12.6667H10.332C10.1254 12.6667 9.92536 12.7667 9.7987 12.9334L8.7987 14.2667C8.3587 14.8534 7.6387 14.8534 7.1987 14.2667L6.1987 12.9334C6.09203 12.7867 5.84536 12.6667 5.66536 12.6667Z" stroke="#9453FF" stroke-width="1.5" stroke-miterlimit="10" stroke-linecap="round" stroke-linejoin="round"/>
<path d="M4.66797 5.33337H11.3346" stroke="#9453FF" stroke-width="1.5" stroke-linecap="round" stroke-linejoin="round"/>
<path d="M4.66797 8.66663H8.66797" stroke="#9453FF" stroke-width="1.5" stroke-linecap="round" stroke-linejoin="round"/>
</svg>
