<svg width="22" height="18" viewBox="0 0 22 18" fill="none" xmlns="http://www.w3.org/2000/svg">
<path d="M5 17V7C5 5.4087 5.63214 3.88258 6.75736 2.75736C7.88258 1.63214 9.4087 1 11 1C12.5913 1 14.1174 1.63214 15.2426 2.75736C16.3679 3.88258 17 5.4087 17 7V17M1 10.565C1 8.512 3 8 5 8V17C3.93913 17 2.92172 16.5786 2.17157 15.8284C1.42143 15.0783 1 14.0609 1 13V10.565ZM21 10.565C21 8.512 19 8 17 8V17C18.0609 17 19.0783 16.5786 19.8284 15.8284C20.5786 15.0783 21 14.0609 21 13V10.565Z" stroke="#554766" stroke-width="1.5" stroke-linecap="round" stroke-linejoin="round"/>
</svg>
