<svg width="24" height="24" viewBox="0 0 24 24" fill="none" xmlns="http://www.w3.org/2000/svg">
<path fill-rule="evenodd" clip-rule="evenodd" d="M12 24C18.6274 24 24 18.6274 24 12C24 5.37258 18.6274 0 12 0C5.37258 0 0 5.37258 0 12C0 18.6274 5.37258 24 12 24ZM12.1365 6.14902H12.0497V6.15H11.8616C10.9332 6.15329 10.0049 6.16987 9.07695 6.19972L8.91022 6.20655L8.82638 6.20948L8.65868 6.21532L8.49292 6.22215C7.41068 6.2709 6.3801 6.3489 5.90527 6.47565C5.57414 6.56524 5.27237 6.74032 5.03023 6.98331C4.78808 7.22631 4.61408 7.5287 4.52565 7.86015C4.42718 8.22968 4.35795 8.72108 4.31115 9.2271L4.3014 9.3285L4.27995 9.582L4.27215 9.6834L4.26922 9.7341L4.2624 9.83453C4.20975 10.634 4.20195 11.3584 4.2 11.5681V11.688C4.20517 12.3504 4.23183 13.0124 4.27995 13.6731L4.28775 13.7745L4.29555 13.8769C4.3443 14.4346 4.41645 14.9894 4.52467 15.3959C4.61325 15.7272 4.78732 16.0294 5.02946 16.2722C5.27159 16.515 5.57328 16.6899 5.9043 16.7795C6.37913 16.9082 7.4097 16.9852 8.49195 17.033L8.65868 17.0398L8.8254 17.0466L8.91022 17.0505L9.07598 17.0564C10.3825 17.1012 11.6285 17.1071 11.9298 17.1071H12.0683C12.664 17.1061 16.9628 17.0846 18.0938 16.7804C18.4249 16.6908 18.7267 16.5158 18.9688 16.2728C19.2109 16.0298 19.385 15.7274 19.4734 15.3959C19.5816 14.9884 19.6538 14.4346 19.7025 13.8769L19.7113 13.7755L19.7191 13.6731C19.7893 12.7449 19.798 11.8538 19.799 11.6646V11.5915C19.798 11.4092 19.7903 10.5745 19.7269 9.6834L19.7191 9.582L19.6976 9.3285L19.6879 9.2271C19.6411 8.72108 19.5719 8.23065 19.4734 7.86015C19.3847 7.52883 19.2106 7.22659 18.9685 6.98363C18.7264 6.74068 18.4248 6.56551 18.0938 6.47565C16.9988 6.1812 12.938 6.15195 12.1365 6.14902ZM10.44 13.9763V9.27878L14.4931 11.6285L10.44 13.9763Z" fill="#9387A8"/>
</svg>
