<svg width="24" height="24" viewBox="0 0 24 24" fill="none" xmlns="http://www.w3.org/2000/svg">
<path d="M21.2831 8.27578L15.3323 7.41094L12.6722 2.01797C12.5995 1.87031 12.48 1.75078 12.3323 1.67812C11.962 1.49531 11.512 1.64765 11.3268 2.01797L8.66669 7.41094L2.7159 8.27578C2.55184 8.29922 2.40184 8.37656 2.28699 8.49375C2.14815 8.63645 2.07165 8.82844 2.07428 9.02752C2.07692 9.2266 2.15849 9.41649 2.30106 9.55547L6.60653 13.7531L5.58934 19.6805C5.56549 19.8184 5.58075 19.9602 5.63339 20.0898C5.68603 20.2195 5.77394 20.3318 5.88716 20.414C6.00038 20.4962 6.13438 20.5451 6.27395 20.5551C6.41353 20.565 6.5531 20.5357 6.67684 20.4703L11.9995 17.6719L17.3222 20.4703C17.4675 20.5477 17.6362 20.5734 17.798 20.5453C18.2058 20.475 18.48 20.0883 18.4097 19.6805L17.3925 13.7531L21.698 9.55547C21.8151 9.44063 21.8925 9.29063 21.9159 9.12656C21.9792 8.71641 21.6933 8.33672 21.2831 8.27578Z" fill="#FCA50B"/>
</svg>
