<svg width="20" height="20" viewBox="0 0 20 20" fill="none" xmlns="http://www.w3.org/2000/svg">
<path d="M17.5574 4.35833C16.2157 4.225 14.8741 4.125 13.5241 4.05V4.04166L13.3407 2.95833C13.2157 2.19166 13.0324 1.04166 11.0824 1.04166H8.89907C6.95741 1.04166 6.77407 2.14166 6.64074 2.95L6.46574 4.01666C5.69074 4.06666 4.91574 4.11666 4.14074 4.19166L2.44074 4.35833C2.09074 4.39166 1.84074 4.7 1.87407 5.04166C1.90741 5.38333 2.20741 5.63333 2.55741 5.6L4.25741 5.43333C8.62407 5 13.0241 5.16666 17.4407 5.60833C17.4657 5.60833 17.4824 5.60833 17.5074 5.60833C17.8241 5.60833 18.0991 5.36666 18.1324 5.04166C18.1574 4.7 17.9074 4.39166 17.5574 4.35833Z" fill="#554766"/>
<path d="M16.0264 6.78334C15.8264 6.575 15.5514 6.45834 15.2681 6.45834H4.73475C4.45142 6.45834 4.16809 6.575 3.97642 6.78334C3.78475 6.99167 3.67642 7.275 3.69309 7.56667L4.20975 16.1167C4.30142 17.3833 4.41809 18.9667 7.32642 18.9667H12.6764C15.5848 18.9667 15.7014 17.3917 15.7931 16.1167L16.3098 7.575C16.3264 7.275 16.2181 6.99167 16.0264 6.78334ZM11.3848 14.7917H8.60975C8.26809 14.7917 7.98475 14.5083 7.98475 14.1667C7.98475 13.825 8.26809 13.5417 8.60975 13.5417H11.3848C11.7264 13.5417 12.0098 13.825 12.0098 14.1667C12.0098 14.5083 11.7264 14.7917 11.3848 14.7917ZM12.0848 11.4583H7.91809C7.57642 11.4583 7.29309 11.175 7.29309 10.8333C7.29309 10.4917 7.57642 10.2083 7.91809 10.2083H12.0848C12.4264 10.2083 12.7098 10.4917 12.7098 10.8333C12.7098 11.175 12.4264 11.4583 12.0848 11.4583Z" fill="#554766"/>
</svg>
