<svg width="40" height="40" viewBox="0 0 40 40" fill="none" xmlns="http://www.w3.org/2000/svg">
<path fill-rule="evenodd" clip-rule="evenodd" d="M20 40C31.0457 40 40 31.0457 40 20C40 8.9543 31.0457 0 20 0C8.9543 0 0 8.9543 0 20C0 31.0457 8.9543 40 20 40ZM20.2275 10.2484H20.0829V10.25H19.7692C18.2219 10.2555 16.6748 10.2831 15.1282 10.3329L14.8504 10.3442L14.7106 10.3491L14.4311 10.3589L14.1549 10.3702C12.3511 10.4515 10.6335 10.5815 9.84212 10.7927C9.29023 10.9421 8.78728 11.2339 8.38371 11.6389C7.98014 12.0439 7.69013 12.5478 7.54275 13.1002C7.37862 13.7161 7.26325 14.5351 7.18525 15.3785L7.169 15.5475L7.13325 15.97L7.12025 16.139L7.11537 16.2235L7.104 16.3909C7.01625 17.7234 7.00325 18.9307 7 19.2801V19.48C7.00861 20.584 7.05305 21.6874 7.13325 22.7885L7.14625 22.9575L7.15925 23.1281C7.2405 24.0576 7.36075 24.9823 7.54112 25.6599C7.68875 26.212 7.97887 26.7156 8.38243 27.1203C8.78598 27.525 9.2888 27.8166 9.8405 27.9658C10.6319 28.1803 12.3495 28.3086 14.1532 28.3883L14.4311 28.3996L14.709 28.411L14.8504 28.4175L15.1266 28.4273C17.3041 28.502 19.3809 28.5118 19.883 28.5118H20.1137C21.1066 28.5101 28.2712 28.4744 30.1562 27.9674C30.7081 27.8181 31.2111 27.5263 31.6147 27.1213C32.0182 26.7163 32.3082 26.2123 32.4556 25.6599C32.636 24.9806 32.7562 24.0576 32.8375 23.1281L32.8521 22.9591L32.8651 22.7885C32.9821 21.2415 32.9967 19.7563 32.9984 19.441V19.3191C32.9967 19.0152 32.9837 17.6243 32.8781 16.139L32.8651 15.97L32.8294 15.5475L32.8131 15.3785C32.7351 14.5351 32.6198 13.7177 32.4556 13.1002C32.3078 12.548 32.0176 12.0443 31.6141 11.6394C31.2106 11.2345 30.7079 10.9425 30.1562 10.7927C28.3314 10.302 21.5632 10.2532 20.2275 10.2484ZM17.4 23.2939V15.4646L24.1551 19.3809L17.4 23.2939Z" fill="white"/>
</svg>
