<svg width="40" height="40" viewBox="0 0 40 40" fill="none" xmlns="http://www.w3.org/2000/svg">
<g clip-path="url(#clip0_718_27266)">
<path d="M7.07566 0L0.00240401 7.07326L0 7.07085V40H33.1096L40 33.1096V0H7.07566ZM31.1849 23.0347C31.1848 23.0934 31.1853 23.1522 31.1681 23.2096C31.1569 23.2475 31.1599 23.2875 31.1598 23.3266C31.1585 23.5327 31.1574 23.7386 31.1562 23.9446C31.1561 23.9789 31.1566 24.0134 31.1549 24.0475C31.1535 24.072 31.1519 24.097 31.1454 24.1202C31.1318 24.1681 31.1303 24.2169 31.1299 24.266C31.1289 24.3935 31.1276 24.521 31.1267 24.6485C31.1263 24.6976 31.1252 24.7464 31.1101 24.7941C31.1012 24.8223 31.101 24.8521 31.1005 24.8815C31.0994 24.9453 31.0984 25.009 31.0976 25.0727C31.097 25.1171 31.0946 25.1609 31.0809 25.2035C31.07 25.2366 31.0707 25.2713 31.0699 25.3055C31.0686 25.3644 31.0656 25.4226 31.0495 25.4802C31.0404 25.5127 31.0416 25.5482 31.0399 25.5824C31.038 25.6216 31.0357 25.6606 31.0233 25.6984C31.014 25.7266 31.0118 25.756 31.0102 25.7855C31.0086 25.815 31.0043 25.8439 30.9954 25.8722C30.991 25.8862 30.9867 25.9006 30.9855 25.9151C30.9808 25.9689 30.9718 26.0215 30.9597 26.0744C30.9477 26.1266 30.9422 26.1806 30.9267 26.2324C30.9158 26.3351 30.8824 26.433 30.8594 26.5332C30.8366 26.6335 30.8084 26.7324 30.7748 26.8298C30.7621 26.8668 30.7523 26.9048 30.742 26.9426C30.7225 27.0134 30.7017 27.0845 30.6737 27.1521C30.6266 27.2653 30.5911 27.3828 30.5424 27.4953C30.5249 27.5358 30.5087 27.5768 30.4899 27.6167C30.4626 27.6741 30.4339 27.7309 30.4124 27.7913C30.3944 27.842 30.3685 27.8897 30.3395 27.9354C30.3237 27.9602 30.307 27.9848 30.2946 28.0112C30.2469 28.1137 30.1858 28.2086 30.1295 28.3061C30.1075 28.3443 30.0828 28.381 30.0584 28.4176C30.0122 28.4869 29.9647 28.5555 29.9185 28.6248C29.8885 28.6697 29.8588 28.7145 29.8209 28.7534C29.8039 28.7709 29.7908 28.792 29.7759 28.8114C29.7579 28.8345 29.7401 28.8578 29.7214 28.8805C29.709 28.8958 29.693 28.9083 29.6827 28.9247C29.635 29.0001 29.5702 29.0603 29.5093 29.124C29.4618 29.1734 29.41 29.2191 29.3747 29.2791C29.3139 29.3429 29.256 29.4097 29.1838 29.4618C29.1601 29.4789 29.1378 29.4984 29.1164 29.5184C29.0771 29.5553 29.0392 29.5937 29.0003 29.6311C28.9616 29.6685 28.9239 29.7072 28.8768 29.7349C28.8642 29.7424 28.853 29.7523 28.8422 29.7621C28.7591 29.8388 28.667 29.9038 28.5735 29.9665C28.5205 30.002 28.4719 30.0431 28.4192 30.0789C28.3422 30.1315 28.2598 30.175 28.1816 30.2256C28.1282 30.2602 28.0732 30.2925 28.017 30.3223C27.9304 30.3682 27.8424 30.4116 27.7545 30.4552C27.7019 30.4812 27.6501 30.5094 27.5931 30.5258C27.5792 30.5298 27.5658 30.5368 27.5526 30.5432C27.4112 30.6113 27.2637 30.6646 27.1153 30.7152C27.0225 30.7467 26.9296 30.7778 26.8365 30.8083C26.7806 30.8264 26.7237 30.8411 26.6668 30.856C26.6053 30.872 26.5456 30.8943 26.4829 30.9074C26.4255 30.9195 26.3698 30.9398 26.3123 30.9507C26.2498 30.9624 26.1879 30.9775 26.1253 30.9882C26.0914 30.9939 26.0577 30.9993 26.0246 31.0083C26.0011 31.0146 25.9764 31.0162 25.9522 31.0196C25.9279 31.023 25.9029 31.0236 25.8797 31.0302C25.8416 31.0411 25.8035 31.0485 25.764 31.0499C25.7543 31.0501 25.7441 31.05 25.7348 31.0526C25.6682 31.0704 25.6007 31.0809 25.5318 31.0815C25.5269 31.0815 25.5219 31.0822 25.5172 31.0838C25.4413 31.1085 25.3627 31.1072 25.2844 31.109C25.255 31.1097 25.2254 31.1107 25.1971 31.1196C25.1545 31.1332 25.1107 31.1359 25.0663 31.1364C25.0222 31.1368 24.9782 31.1379 24.934 31.1383C24.8849 31.1388 24.8361 31.1403 24.7885 31.1554C24.7555 31.1658 24.7208 31.1649 24.6865 31.1651C24.5736 31.1662 24.4609 31.1671 24.3482 31.1681C24.2992 31.1685 24.2503 31.1693 24.2026 31.184C24.1647 31.1957 24.125 31.194 24.0857 31.1943C23.9192 31.1955 23.7525 31.1965 23.5858 31.1976C23.5416 31.1979 23.4976 31.1981 23.4534 31.1981C23.4091 31.1981 23.3653 31.2003 23.3225 31.2131C23.294 31.2215 23.2645 31.2228 23.235 31.223C23.1909 31.2234 23.1468 31.2236 23.1026 31.2236C22.0585 31.225 21.0144 31.2263 19.9701 31.2276C18.9309 31.2263 17.8916 31.225 16.8522 31.2236C16.8081 31.2235 16.7641 31.2232 16.7199 31.223C16.6904 31.2227 16.661 31.2211 16.6325 31.2126C16.5848 31.198 16.5358 31.1983 16.4868 31.198C16.2908 31.1969 16.0947 31.1957 15.8985 31.1944C15.8397 31.1941 15.781 31.1948 15.7237 31.1769C15.6907 31.1666 15.6558 31.1685 15.6215 31.1682C15.5136 31.1671 15.4058 31.1663 15.2979 31.1655C15.2439 31.165 15.1905 31.1638 15.1376 31.1487C15.1098 31.1408 15.0795 31.1404 15.0503 31.1392C15.0014 31.1372 14.9523 31.1374 14.9032 31.1366C14.8542 31.1359 14.8056 31.134 14.7578 31.1197C14.7347 31.1128 14.7096 31.1112 14.6853 31.1097C14.6461 31.1074 14.6067 31.1082 14.5676 31.106C14.5433 31.1046 14.5182 31.1034 14.4951 31.0966C14.4522 31.0839 14.4087 31.079 14.3645 31.0778C14.33 31.077 14.2964 31.0717 14.2632 31.0618C14.2445 31.0563 14.2249 31.0528 14.2055 31.0511C14.1616 31.0475 14.1181 31.0435 14.0753 31.0299C14.0525 31.0224 14.0271 31.0229 14.0028 31.0194C13.9786 31.016 13.9537 31.0148 13.9306 31.0078C13.8646 30.9883 13.7946 30.9884 13.7297 30.9647C13.6222 30.9525 13.5203 30.9149 13.4145 30.8948C13.3221 30.8621 13.2258 30.8425 13.1328 30.8116C13.0118 30.7717 12.89 30.7339 12.7706 30.6898C12.6879 30.6594 12.6063 30.6256 12.5229 30.5973C12.4998 30.5894 12.478 30.5776 12.4557 30.5675C12.429 30.5552 12.4032 30.5402 12.3756 30.5305C12.2408 30.4831 12.1183 30.41 11.9904 30.3483C11.8749 30.2746 11.7496 30.217 11.6373 30.1374C11.6095 30.1177 11.5788 30.1019 11.5495 30.084C11.5328 30.0737 11.5148 30.0649 11.5001 30.0524C11.4479 30.0075 11.3883 29.973 11.3332 29.9323C11.2622 29.8799 11.1888 29.8309 11.1244 29.7704C11.1172 29.7636 11.1104 29.7563 11.1021 29.7512C11.0141 29.6956 10.9454 29.6182 10.8709 29.5475C10.853 29.5307 10.8358 29.5132 10.8184 29.496C10.794 29.4718 10.7686 29.4489 10.7402 29.4293C10.6833 29.39 10.6348 29.3416 10.5953 29.2847C10.5756 29.2562 10.5528 29.2309 10.5287 29.2063C10.4807 29.1574 10.4327 29.1082 10.3848 29.0591C10.3506 29.024 10.3161 28.9892 10.2909 28.9465C10.2835 28.934 10.2738 28.9225 10.2638 28.9118C10.1967 28.8401 10.1436 28.7573 10.0832 28.6803C10.0044 28.5799 9.93496 28.4732 9.86644 28.3658C9.80581 28.2709 9.74544 28.1756 9.69496 28.0747C9.67078 28.0266 9.64661 27.9785 9.61683 27.9332C9.59813 27.9048 9.58144 27.8738 9.57035 27.8417C9.55098 27.7858 9.52454 27.7334 9.4981 27.6809C9.43185 27.5493 9.37856 27.4124 9.33062 27.2733C9.30831 27.2084 9.28601 27.1436 9.25983 27.0801C9.24114 27.0351 9.22644 26.9879 9.21416 26.9405C9.20561 26.9074 9.19693 26.8743 9.18584 26.8418C9.13522 26.6932 9.0985 26.5408 9.0627 26.3882C9.05162 26.3406 9.03599 26.2942 9.03172 26.2447C9.02745 26.1961 9.00902 26.1499 9.00207 26.101C8.99312 26.0382 8.97416 25.9769 8.97109 25.9129C8.97042 25.8985 8.96441 25.8843 8.96147 25.8699C8.95666 25.846 8.94972 25.8221 8.94838 25.7979C8.94518 25.744 8.94157 25.6904 8.92501 25.6383C8.91927 25.62 8.91873 25.5996 8.91793 25.5801C8.91606 25.531 8.91152 25.4826 8.89736 25.4349C8.89055 25.4118 8.89028 25.3866 8.88908 25.3621C8.88721 25.3279 8.88775 25.2935 8.88601 25.2592C8.88481 25.2349 8.88548 25.2092 8.87813 25.1864C8.8585 25.1243 8.85957 25.0606 8.85836 24.997C8.85783 24.9627 8.85716 24.9283 8.85689 24.8939C8.85649 24.8399 8.85569 24.7862 8.8394 24.7338C8.82911 24.7006 8.83058 24.6658 8.83032 24.6315C8.82911 24.4991 8.82791 24.3666 8.82698 24.2343C8.82658 24.1851 8.82511 24.1364 8.81055 24.0887C8.79893 24.0508 8.8012 24.011 8.80093 23.9718C8.79973 23.8149 8.7988 23.6578 8.798 23.5009C8.7976 23.4323 8.79733 23.3636 8.79706 23.295C8.79693 23.2459 8.79546 23.1972 8.7821 23.1491C8.77556 23.1259 8.77382 23.1009 8.77289 23.0765C8.77129 23.0324 8.77169 22.9882 8.77169 22.9441V17.0001C8.77169 16.9657 8.77209 16.9314 8.77195 16.8971C8.77182 16.8529 8.77382 16.8089 8.78651 16.7661C8.79492 16.7376 8.79639 16.7081 8.79666 16.6786C8.79706 16.61 8.79733 16.5413 8.79773 16.4727C8.7988 16.2913 8.79987 16.1098 8.80107 15.9283C8.8012 15.889 8.8008 15.8496 8.81229 15.8116C8.82511 15.7687 8.82671 15.7247 8.82698 15.6805C8.82791 15.548 8.82911 15.4157 8.83032 15.2833C8.83058 15.2441 8.82952 15.2045 8.841 15.1665C8.85396 15.1237 8.85636 15.0798 8.85663 15.0356C8.85716 14.9816 8.8585 14.9277 8.85903 14.8737C8.85957 14.8246 8.86224 14.776 8.87639 14.7283C8.88334 14.705 8.88441 14.6799 8.88574 14.6555C8.88788 14.6164 8.88761 14.5771 8.88935 14.538C8.89015 14.5183 8.89002 14.498 8.89549 14.4796C8.91098 14.4274 8.917 14.3742 8.9186 14.32C8.91913 14.3005 8.92113 14.2803 8.92715 14.262C8.94103 14.2194 8.94531 14.1758 8.94664 14.1316C8.94771 14.0971 8.95292 14.0633 8.96334 14.0303C8.96775 14.0164 8.97202 14.0017 8.97255 13.9873C8.97442 13.928 8.99179 13.8715 9.00127 13.8137C9.00942 13.7652 9.0205 13.7178 9.03199 13.6702C9.0412 13.6322 9.05175 13.5943 9.0591 13.5559C9.06658 13.5175 9.07165 13.4789 9.0814 13.4407C9.0985 13.3742 9.1192 13.3087 9.13629 13.2425C9.1805 13.0714 9.2418 12.9059 9.29589 12.738C9.33062 12.6307 9.37563 12.5273 9.41569 12.422C9.49436 12.2153 9.60093 12.0218 9.70097 11.8253C9.73636 11.7556 9.7787 11.6892 9.82037 11.623C9.84133 11.5897 9.86217 11.5566 9.88127 11.5223C9.89075 11.5052 9.89997 11.4874 9.91265 11.4727C9.9574 11.4204 9.99185 11.3608 10.0322 11.3052C10.0753 11.2459 10.1187 11.1866 10.1633 11.1283C10.214 11.0623 10.2614 10.9935 10.3224 10.9361C10.3296 10.9294 10.3364 10.9219 10.3414 10.9137C10.3796 10.8495 10.4337 10.7993 10.4855 10.7474C10.6273 10.605 10.7699 10.4633 10.9125 10.3215C10.9438 10.2904 10.9754 10.2598 11.0134 10.2364C11.03 10.2262 11.0449 10.2132 11.0596 10.2002C11.0926 10.171 11.1225 10.1374 11.1582 10.1121C11.2302 10.061 11.2975 10.004 11.3719 9.95633C11.442 9.91132 11.5036 9.85375 11.5761 9.81275C11.6402 9.77656 11.7027 9.73796 11.7637 9.69709C11.8087 9.66691 11.8554 9.64033 11.9036 9.61603C12.0043 9.56541 12.1047 9.51412 12.2055 9.46377C12.3802 9.37669 12.3804 9.37696 12.5961 9.29389C12.7022 9.2426 12.8176 9.21536 12.9251 9.16714C12.9607 9.15112 12.9986 9.13883 13.0365 9.13002C13.1036 9.11452 13.1681 9.09155 13.2338 9.07179C13.3649 9.03212 13.4969 8.99499 13.6325 8.97309C13.6469 8.97068 13.661 8.96641 13.6753 8.9628C13.7275 8.94972 13.7794 8.93476 13.8321 8.92394C13.8801 8.91419 13.9291 8.91085 13.9761 8.89563C13.9944 8.88975 14.0148 8.89055 14.0342 8.88801C14.0585 8.88481 14.0837 8.88481 14.1067 8.8776C14.1494 8.86397 14.1929 8.8597 14.2371 8.8577C14.2567 8.85689 14.2771 8.8573 14.2954 8.85155C14.3571 8.83165 14.4204 8.82885 14.4843 8.82698C14.5038 8.82644 14.5241 8.82564 14.5424 8.81963C14.5994 8.8012 14.658 8.8 14.7169 8.79906C14.7709 8.79826 14.8243 8.79639 14.8771 8.78103C14.9048 8.77302 14.9352 8.77249 14.9644 8.77155C15.028 8.76955 15.0918 8.76941 15.1555 8.76861C15.1948 8.76808 15.2339 8.76701 15.272 8.75526C15.3099 8.74351 15.3492 8.74257 15.3884 8.7423C15.5159 8.74123 15.6434 8.7403 15.7708 8.7391C15.8393 8.73856 15.9084 8.7423 15.9748 8.7192C16.0089 8.71706 16.0431 8.71346 16.0773 8.71319C16.2343 8.71159 16.3911 8.71078 16.548 8.71012C16.695 8.70945 16.8421 8.70905 16.9891 8.70865C17.0383 8.70851 17.0871 8.70838 17.1348 8.69396C17.1633 8.68528 17.1928 8.68434 17.2223 8.68421C17.2566 8.68394 17.291 8.68367 17.3253 8.68367C19.095 8.68367 20.8646 8.68367 22.6344 8.68381C22.6687 8.68381 22.703 8.68394 22.7374 8.68421C22.7669 8.68447 22.7963 8.68608 22.8247 8.69462C22.8724 8.70891 22.9214 8.70851 22.9706 8.70878C23.2401 8.70985 23.5097 8.71105 23.7794 8.71239C23.8234 8.71252 23.8676 8.71292 23.9117 8.71346C23.9412 8.71372 23.9706 8.71506 23.9991 8.72374C24.0419 8.73656 24.0857 8.73856 24.1301 8.73883C24.2672 8.73977 24.4045 8.74097 24.5418 8.74204C24.5958 8.74244 24.6492 8.74404 24.7021 8.75873C24.73 8.76648 24.7602 8.76715 24.7894 8.76808C24.8581 8.77008 24.9267 8.77035 24.9954 8.77129C25.0297 8.77169 25.0639 8.77409 25.097 8.78451C25.1301 8.79492 25.1642 8.79746 25.1987 8.79813C25.233 8.7988 25.2673 8.79893 25.3015 8.80093C25.3259 8.80227 25.3512 8.80307 25.3742 8.81015C25.4218 8.82471 25.4705 8.82791 25.5195 8.82898C25.5589 8.82978 25.5977 8.83325 25.6355 8.84554C25.6447 8.84861 25.6545 8.85155 25.6641 8.85222C25.7424 8.85703 25.8198 8.86718 25.8961 8.88601C25.98 8.88828 26.06 8.91406 26.1416 8.92915C26.2184 8.94331 26.2956 8.9572 26.3712 8.97763C26.4421 8.99686 26.5129 9.01676 26.5846 9.03212C26.628 9.04134 26.6695 9.05549 26.7117 9.06818C26.782 9.08942 26.8507 9.11532 26.923 9.13055C26.9564 9.13763 26.9895 9.14871 27.0206 9.16247C27.1149 9.20441 27.2138 9.23352 27.3104 9.26878C27.338 9.2788 27.3659 9.28855 27.3925 9.30097C27.4457 9.32594 27.499 9.35038 27.5549 9.36935C27.5825 9.37883 27.6085 9.39339 27.6349 9.40648C27.7402 9.4587 27.8453 9.51172 27.9509 9.56367C28.0609 9.6179 28.1688 9.67559 28.2692 9.74664C28.3212 9.78337 28.3808 9.80795 28.4318 9.84694C28.4821 9.88554 28.5357 9.92027 28.5868 9.9582C28.6341 9.99305 28.6866 10.0207 28.7291 10.0622C28.7912 10.1022 28.8463 10.1507 28.8991 10.2019C28.9062 10.2087 28.9134 10.2158 28.9217 10.2208C28.9938 10.2646 29.0503 10.3264 29.1093 10.385C29.2518 10.5269 29.3934 10.6695 29.5351 10.8122C29.573 10.8505 29.6115 10.8884 29.6393 10.9354C29.6466 10.948 29.6568 10.9591 29.6668 10.9697C29.7 11.0058 29.7337 11.0415 29.7584 11.0845C29.8285 11.1603 29.8869 11.2449 29.943 11.3313C30.0307 11.4317 30.0893 11.5513 30.1605 11.6625C30.1975 11.7202 30.2328 11.7794 30.2642 11.8401C30.336 11.9797 30.406 12.1202 30.4744 12.2614C30.5022 12.3185 30.5251 12.3782 30.5478 12.4377C30.5863 12.5382 30.6294 12.6372 30.6616 12.7403C30.685 12.8151 30.7132 12.8884 30.7364 12.9632C30.7611 13.0428 30.7902 13.1208 30.8092 13.2023C30.8282 13.2832 30.8585 13.3613 30.8756 13.4429C30.8926 13.5244 30.907 13.6067 30.9297 13.6865C30.9499 13.7576 30.9532 13.8315 30.9748 13.9021C30.9848 13.9343 30.9786 13.9713 30.988 14.0037C31.0046 14.061 31.0081 14.1193 31.0137 14.1779C31.0178 14.2214 31.031 14.2642 31.0373 14.3077C31.0428 14.3464 31.0443 14.3857 31.0475 14.4248C31.0706 14.4859 31.0683 14.5501 31.0697 14.6138C31.0707 14.6628 31.0722 14.7117 31.0877 14.7591C31.0969 14.7874 31.0969 14.8171 31.0974 14.8466C31.0984 14.9054 31.0994 14.9643 31.1001 15.0232C31.1008 15.0722 31.1016 15.1212 31.1165 15.1687C31.1271 15.2019 31.1263 15.2366 31.1265 15.2709C31.1279 15.3983 31.1291 15.5259 31.1299 15.6534C31.1303 15.6976 31.1324 15.7416 31.1452 15.7844C31.1566 15.8225 31.1555 15.862 31.1558 15.9012C31.1569 16.0483 31.1578 16.1954 31.1587 16.3426C31.1591 16.4162 31.1595 16.4897 31.1595 16.5632C31.1597 16.6221 31.1607 16.6806 31.177 16.7383C31.1836 16.7614 31.1836 16.7868 31.1842 16.8112C31.1854 16.8602 31.1852 16.9092 31.1852 16.9583C31.1857 18.6894 31.1861 20.4207 31.1864 22.1519C31.1864 22.4461 31.1854 22.7404 31.1849 23.0347Z" fill="white"/>
<path d="M25.7239 19.7326C25.7239 19.6981 25.7211 19.6641 25.711 19.631C25.7007 19.5978 25.6984 19.5637 25.6979 19.5293C25.6971 19.4853 25.6964 19.4411 25.6948 19.3971C25.694 19.3775 25.6936 19.3574 25.6887 19.3387C25.6759 19.2912 25.6654 19.2434 25.6666 19.1941C25.668 19.1391 25.6423 19.0893 25.639 19.0353C25.6387 19.0304 25.6382 19.0256 25.6379 19.0206C25.6362 18.9863 25.6299 18.953 25.621 18.9196C25.6057 18.863 25.5924 18.8057 25.5812 18.7482C25.563 18.6561 25.5212 18.478 25.4932 18.3924C25.4384 18.225 25.3867 18.0566 25.3195 17.8933C25.2693 17.7711 25.2227 17.6475 25.1618 17.5299C25.1147 17.4385 25.0675 17.347 25.0236 17.2541C24.9754 17.1519 24.9105 17.0595 24.8572 16.9604C24.7593 16.8199 24.6739 16.6707 24.5654 16.5377C24.5375 16.4853 24.4916 16.4463 24.4608 16.3961C24.427 16.3414 24.3769 16.3006 24.3351 16.2528C24.319 16.2344 24.3027 16.2159 24.2893 16.1955C24.2703 16.1667 24.2482 16.1407 24.2239 16.1164C24.0925 15.9848 23.961 15.8531 23.8292 15.7218C23.8119 15.7046 23.7942 15.6867 23.7738 15.6738C23.7274 15.645 23.6899 15.6065 23.6503 15.5702C23.6213 15.5439 23.5928 15.5166 23.5614 15.4935C23.5337 15.4734 23.5074 15.4516 23.4797 15.4314C23.4045 15.3768 23.3323 15.3182 23.2547 15.2669C23.1731 15.2129 23.0911 15.1594 23.0099 15.1048C22.949 15.0638 22.8818 15.0332 22.8218 14.9904C22.8021 14.9763 22.7788 14.9672 22.757 14.956C22.7178 14.9358 22.6797 14.9139 22.6423 14.8905C22.5758 14.8491 22.506 14.8131 22.4325 14.7854C22.3866 14.7682 22.3422 14.7479 22.2984 14.7261C22.193 14.6739 22.0835 14.6314 21.9727 14.5927C21.8387 14.546 21.7037 14.5023 21.569 14.4575C21.5412 14.4483 21.5133 14.439 21.4848 14.4318C21.3757 14.4044 21.2666 14.3775 21.1573 14.351C21.1384 14.3464 21.119 14.3423 21.0996 14.3408C21.0605 14.3377 21.0223 14.3315 20.9841 14.3216C20.9417 14.3106 20.897 14.3078 20.8546 14.297C20.8162 14.2873 20.778 14.2815 20.7387 14.2807C20.6896 14.2798 20.6413 14.2758 20.5936 14.2615C20.5706 14.2545 20.5454 14.2537 20.5211 14.2527C20.4721 14.2507 20.4232 14.2504 20.3742 14.2497C20.3349 14.2491 20.2959 14.2476 20.2579 14.236C20.2247 14.226 20.1905 14.2238 20.1562 14.2238C20.0387 14.2237 19.9212 14.2236 19.8036 14.2237C19.7743 14.2238 19.7446 14.224 19.7163 14.2328C19.6689 14.2477 19.62 14.2491 19.571 14.2496C19.5172 14.2503 19.4633 14.2508 19.4095 14.2528C19.3852 14.2537 19.36 14.2551 19.337 14.262C19.2893 14.2763 19.2408 14.2792 19.1918 14.2811C19.1674 14.2821 19.1415 14.2802 19.119 14.2879C19.0628 14.3074 19.0027 14.3049 18.9465 14.3219C18.9134 14.3319 18.8794 14.3356 18.8458 14.3412C18.8073 14.3478 18.7697 14.3592 18.7313 14.3666C18.6391 14.384 18.4767 14.4219 18.3897 14.4502C18.2363 14.5003 18.0824 14.5497 17.9301 14.6034C17.8427 14.6342 17.7556 14.6674 17.6719 14.7081C17.6103 14.7381 17.5497 14.7698 17.4842 14.7916C17.4612 14.7992 17.4392 14.8112 17.4186 14.8243C17.3855 14.8454 17.3507 14.8622 17.3147 14.8781C17.2747 14.8959 17.2386 14.9223 17.1999 14.9432C17.1482 14.9709 17.0969 14.999 17.0472 15.0308C16.9937 15.065 16.9372 15.0943 16.8844 15.1303C16.7592 15.2156 16.6292 15.2941 16.511 15.3899C16.4671 15.4127 16.4356 15.4525 16.3939 15.4779C16.3558 15.5012 16.3239 15.5312 16.2916 15.5613C16.2593 15.5912 16.2289 15.6243 16.193 15.649C16.1441 15.6827 16.1017 15.7227 16.0601 15.7641C15.956 15.8679 15.8522 15.9718 15.7487 16.076C15.7073 16.1176 15.6657 16.1589 15.6337 16.2091C15.6182 16.2337 15.5963 16.2543 15.5763 16.2758C15.5464 16.3081 15.5152 16.3393 15.4928 16.3778C15.4854 16.3905 15.4756 16.4017 15.4664 16.4131C15.3556 16.5477 15.319 16.5963 15.2296 16.7301C15.1887 16.7912 15.1502 16.8538 15.1072 16.9134C15.0697 16.9652 15.0446 17.0242 15.0083 17.0764C14.9689 17.1332 14.9403 17.1953 14.9088 17.2562C14.8774 17.3171 14.8469 17.3785 14.8163 17.44C14.7792 17.5145 14.7413 17.5886 14.7062 17.6641C14.6835 17.7128 14.6646 17.7633 14.6451 17.8135C14.6041 17.9182 14.5602 18.0219 14.5257 18.1293C14.4914 18.2364 14.4559 18.3431 14.4262 18.4518C14.4069 18.5225 14.388 18.5934 14.3675 18.6639C14.3524 18.7157 14.3555 18.7711 14.3345 18.8216C14.3251 18.9043 14.2951 18.9834 14.2925 19.0671C14.2743 19.1434 14.264 19.2208 14.2593 19.2991C14.2584 19.3135 14.2533 19.3278 14.2491 19.3418C14.2409 19.3703 14.2379 19.3994 14.2373 19.4289C14.2361 19.4827 14.2351 19.5367 14.2339 19.5905C14.2333 19.6199 14.2327 19.6495 14.2238 19.6778C14.2085 19.7253 14.208 19.7743 14.208 19.8233C14.208 19.9605 14.208 20.0976 14.2081 20.2348C14.2081 20.2838 14.2101 20.3324 14.2242 20.3802C14.231 20.4035 14.2323 20.4284 14.2337 20.4529C14.2357 20.4919 14.2358 20.5311 14.2363 20.5703C14.237 20.6145 14.2395 20.6583 14.2534 20.7009C14.2641 20.7339 14.264 20.7685 14.265 20.8028C14.2662 20.8469 14.2688 20.8907 14.2827 20.9333C14.2887 20.9517 14.2915 20.9715 14.2936 20.9908C14.3014 21.0638 14.3297 21.1333 14.3295 21.2077C14.3295 21.2172 14.334 21.2267 14.3362 21.2362C14.385 21.4409 14.4363 21.6449 14.5064 21.8436C14.5177 21.8759 14.5283 21.9085 14.5394 21.9409C14.5944 22.1034 14.6535 22.2639 14.7313 22.4172C14.7445 22.4433 14.7552 22.4708 14.7655 22.4983C14.793 22.572 14.8276 22.6425 14.8686 22.709C14.9021 22.7634 14.9325 22.8191 14.9614 22.8758C14.9881 22.9282 15.0175 22.9788 15.0501 23.028C15.0853 23.0809 15.1194 23.1345 15.1504 23.1902C15.1931 23.2674 15.2515 23.3343 15.3015 23.4067C15.3432 23.467 15.3823 23.5293 15.4347 23.5817C15.445 23.592 15.4539 23.6041 15.4615 23.6165C15.482 23.6502 15.5074 23.6799 15.5341 23.7087C15.5506 23.7266 15.5677 23.7448 15.5804 23.7653C15.6066 23.8077 15.6408 23.8424 15.6752 23.8772C15.8026 24.006 15.9299 24.1349 16.0585 24.2627C16.1244 24.3281 16.1874 24.397 16.2673 24.4467C16.2756 24.4519 16.2829 24.4587 16.2896 24.466C16.3434 24.5235 16.4083 24.5679 16.4707 24.6149C16.5448 24.6708 16.6176 24.7287 16.6953 24.78C16.7646 24.8258 16.8334 24.8726 16.903 24.9183C16.9603 24.9558 17.0176 24.9934 17.0795 25.0232C17.106 25.0358 17.1304 25.0523 17.1558 25.0672C17.181 25.0821 17.2054 25.0987 17.2315 25.112C17.4108 25.202 17.5873 25.298 17.7752 25.3697C17.8483 25.3976 17.9203 25.4286 17.9941 25.4544C18.1142 25.4963 18.2355 25.5352 18.3562 25.575C18.3794 25.5828 18.4027 25.5904 18.4264 25.5964C18.5307 25.6227 18.6348 25.6497 18.7396 25.6737C18.8063 25.6889 18.8736 25.7016 18.9407 25.7136C18.9839 25.7214 19.0282 25.7214 19.0707 25.7353C19.1178 25.7506 19.1681 25.7436 19.2164 25.7506C19.226 25.752 19.2359 25.7533 19.2451 25.7566C19.2873 25.7719 19.3311 25.7743 19.3753 25.7751C19.4341 25.7761 19.4923 25.7787 19.5499 25.7948C19.5775 25.8026 19.608 25.8025 19.6372 25.8027C19.745 25.8035 19.8527 25.803 19.9604 25.803C20.073 25.803 20.1856 25.8035 20.2982 25.8026C20.3274 25.8023 20.3579 25.8021 20.3855 25.7942C20.4431 25.7777 20.5015 25.7764 20.5601 25.7749C20.5944 25.7741 20.6289 25.7741 20.662 25.7635C20.6997 25.7514 20.7384 25.7472 20.7776 25.7461C20.812 25.7453 20.8458 25.7412 20.879 25.7314C20.9024 25.7246 20.9268 25.72 20.951 25.718C20.9901 25.7148 21.0283 25.7087 21.0665 25.6985C21.1089 25.6873 21.1529 25.6828 21.1958 25.6732C21.2626 25.6581 21.3291 25.6417 21.3953 25.6247C21.4522 25.6103 21.5094 25.5965 21.5651 25.5785C21.7374 25.5228 21.9099 25.4688 22.0781 25.4005C22.298 25.3108 22.2991 25.3135 22.4807 25.2231C22.5333 25.1969 22.5853 25.1695 22.6385 25.1444C22.7568 25.0885 22.9444 24.9755 23.0566 24.9006C23.2803 24.7511 23.3515 24.709 23.6357 24.4753C23.6432 24.4692 23.6509 24.4629 23.6593 24.4581C23.6982 24.436 23.7295 24.4048 23.7607 24.3737C23.9135 24.2218 24.0664 24.07 24.2185 23.9174C24.2703 23.8655 24.3234 23.8145 24.3622 23.751C24.3724 23.7346 24.3875 23.7213 24.4006 23.7067C24.4334 23.6705 24.4679 23.636 24.495 23.5945C24.5217 23.5538 24.5537 23.5164 24.5825 23.4768C24.6225 23.4213 24.6594 23.3636 24.7024 23.31C24.7328 23.272 24.7602 23.2307 24.7836 23.1878C24.8142 23.1319 24.8489 23.0786 24.8842 23.0257C24.9169 22.9765 24.9456 22.9257 24.9726 22.8734C24.9951 22.83 25.0166 22.7858 25.0426 22.7444C25.0946 22.6611 25.1391 22.5743 25.173 22.482C25.1849 22.4499 25.2003 22.4191 25.2156 22.3884C25.2748 22.27 25.3219 22.1465 25.3658 22.0219C25.4081 21.9018 25.4466 21.7804 25.4864 21.6595C25.497 21.627 25.5077 21.5944 25.5161 21.5611C25.5438 21.4521 25.5702 21.3429 25.5973 21.2336C25.6103 21.1814 25.6106 21.1268 25.6295 21.0756C25.6345 21.0622 25.635 21.0468 25.6359 21.0321C25.6389 20.988 25.6481 20.9453 25.6573 20.902C25.6673 20.8545 25.6674 20.8049 25.6729 20.7563C25.6745 20.7418 25.6789 20.7276 25.6831 20.7134C25.6914 20.685 25.6944 20.6559 25.6951 20.6265C25.696 20.5872 25.697 20.5481 25.6978 20.509C25.6984 20.4697 25.6999 20.4306 25.7118 20.3926C25.7221 20.3595 25.7241 20.3253 25.7241 20.291C25.7242 20.1048 25.7241 19.9186 25.7239 19.7326ZM23.6974 20.3407C23.6969 20.3799 23.6942 20.4188 23.6828 20.4569C23.6772 20.4756 23.6739 20.4951 23.6719 20.5144C23.6684 20.5485 23.6669 20.5828 23.664 20.6169C23.6632 20.6266 23.6601 20.6361 23.658 20.6456C23.6372 20.7361 23.6209 20.8275 23.5988 20.9178C23.5616 21.0702 23.5075 21.2172 23.4591 21.3661C23.4172 21.4597 23.3861 21.5582 23.3371 21.649C23.3138 21.6921 23.2919 21.7359 23.2714 21.7804C23.2302 21.8696 23.1705 21.948 23.1258 22.0351C23.0712 22.1104 23.0272 22.193 22.9657 22.2632C22.9173 22.3432 22.8463 22.4056 22.7952 22.4836C22.7794 22.5078 22.7565 22.5277 22.7359 22.5486C22.6601 22.6252 22.5828 22.7001 22.5082 22.7779C22.4232 22.8668 22.3259 22.9405 22.2278 23.0134C22.161 23.063 22.0952 23.1137 22.0249 23.1584C21.9052 23.2346 21.7854 23.3104 21.6571 23.3719C21.6218 23.3887 21.5867 23.4063 21.552 23.4244C21.4605 23.4718 21.3639 23.5069 21.2677 23.5426C21.1759 23.5765 21.0819 23.604 20.9893 23.6356C20.9521 23.6483 20.9137 23.6558 20.8759 23.6654C20.8379 23.675 20.8001 23.6836 20.7616 23.6909C20.6944 23.7036 20.6273 23.7164 20.5605 23.7309C20.5219 23.7393 20.4838 23.7464 20.4446 23.747C20.3954 23.7477 20.3471 23.7516 20.2994 23.7659C20.2764 23.7727 20.2512 23.7741 20.2269 23.7743C20.0654 23.7751 19.9038 23.7749 19.7422 23.7749C19.7079 23.7749 19.6738 23.7717 19.6408 23.7615C19.6125 23.7525 19.5834 23.749 19.5539 23.7485C19.4951 23.7474 19.4364 23.7458 19.3801 23.7254C19.3711 23.7221 19.3609 23.7206 19.3512 23.7207C19.2865 23.7221 19.2256 23.7015 19.1642 23.6864C19.0597 23.6606 18.955 23.6364 18.8519 23.6052C18.7629 23.5781 18.6767 23.5432 18.5904 23.509C18.4722 23.462 18.3538 23.4155 18.2421 23.3538C18.1823 23.3207 18.1226 23.2871 18.0646 23.2506C17.9487 23.1777 17.8337 23.1034 17.7242 23.0209C17.6617 22.9736 17.5989 22.9271 17.5439 22.8709C17.5406 22.8674 17.537 22.864 17.5328 22.8614C17.4448 22.8059 17.3778 22.7269 17.3042 22.6555C17.2902 22.6419 17.2768 22.6274 17.2628 22.6138C17.2203 22.5729 17.1847 22.5266 17.1495 22.4794C17.1175 22.4364 17.0762 22.4004 17.043 22.3583C16.9736 22.2708 16.8509 22.092 16.7835 21.9848C16.7678 21.9599 16.7537 21.9341 16.7401 21.9081C16.7173 21.8647 16.6944 21.8217 16.6674 21.7807C16.6352 21.7314 16.6102 21.6781 16.5887 21.6232C16.5763 21.5914 16.564 21.5594 16.5495 21.5284C16.4974 21.4175 16.4552 21.3028 16.4147 21.1874C16.3904 21.118 16.3756 21.046 16.3558 20.9753C16.3401 20.9188 16.3304 20.8608 16.3151 20.8041C16.3035 20.7614 16.2937 20.7189 16.291 20.6746C16.2896 20.6504 16.2845 20.626 16.2778 20.6026C16.2682 20.5693 16.2653 20.5354 16.263 20.5012C16.2611 20.472 16.2614 20.4417 16.2532 20.414C16.238 20.3613 16.2351 20.3081 16.2351 20.254C16.2352 20.0973 16.2351 19.9407 16.2352 19.7839C16.2352 19.7398 16.2368 19.6959 16.2506 19.6531C16.2613 19.6201 16.2621 19.5857 16.2627 19.5515C16.2637 19.5024 16.2689 19.4543 16.2828 19.4066C16.2937 19.3692 16.2945 19.3291 16.3037 19.2912C16.312 19.2579 16.3172 19.2242 16.3242 19.1908C16.337 19.1285 16.3517 19.0666 16.3702 19.0058C16.4018 18.903 16.4337 18.7998 16.4715 18.6991C16.5075 18.6031 16.5429 18.5064 16.5909 18.4152C16.6204 18.3588 16.6479 18.3013 16.6766 18.2445C16.6965 18.2053 16.7136 18.164 16.7379 18.1275C16.7867 18.0541 16.8249 17.9742 16.8773 17.9032C16.9209 17.8443 16.9638 17.7847 17.0077 17.7259C17.0399 17.6829 17.0718 17.6394 17.1069 17.5988C17.142 17.5582 17.1809 17.5205 17.2187 17.4822C17.2496 17.4507 17.2792 17.4183 17.3031 17.381C17.3191 17.3561 17.3401 17.3347 17.3652 17.3191C17.4072 17.2929 17.4417 17.2583 17.4769 17.2242C17.5084 17.1934 17.54 17.1629 17.5721 17.1325C17.5862 17.119 17.6001 17.1048 17.616 17.0937C17.7004 17.0352 17.7807 16.9712 17.8664 16.9144C18.176 16.7097 18.0771 16.7709 18.3737 16.6202C18.5533 16.5291 18.7435 16.4656 18.9345 16.4041C19.04 16.3837 19.1415 16.3448 19.2491 16.334C19.3054 16.3157 19.3634 16.3084 19.4222 16.3044C19.4366 16.3034 19.4511 16.299 19.4649 16.2946C19.4981 16.2839 19.532 16.281 19.5665 16.2803C19.6006 16.2795 19.635 16.2787 19.6692 16.2779C19.6987 16.2772 19.7279 16.275 19.7562 16.2663C19.7942 16.2545 19.8332 16.2523 19.8724 16.2523C19.9312 16.2523 19.9898 16.2523 20.0486 16.2521C20.0928 16.2521 20.1367 16.2537 20.1795 16.267C20.2078 16.2756 20.237 16.2774 20.2665 16.278C20.3007 16.2787 20.3351 16.2791 20.3692 16.2804C20.3889 16.2813 20.4093 16.2802 20.4276 16.2857C20.4844 16.303 20.5438 16.3025 20.601 16.3144C20.7013 16.3353 20.8021 16.3546 20.9016 16.3798C21.0203 16.4099 21.137 16.4465 21.2515 16.4889C21.3477 16.5247 21.4442 16.5604 21.5356 16.6082C21.5919 16.6376 21.6487 16.6666 21.7064 16.6934C21.7774 16.7264 21.9755 16.8449 22.0472 16.8948C22.1073 16.9367 22.1657 16.9812 22.2246 17.0249C22.2403 17.0365 22.254 17.0513 22.2705 17.0614C22.3173 17.0894 22.3557 17.1269 22.3946 17.1642C22.4298 17.1981 22.4656 17.231 22.5062 17.2591C22.5551 17.2928 22.6581 17.3967 22.6921 17.4459C22.7176 17.4823 22.7468 17.5149 22.7775 17.5464C22.8185 17.5886 22.8597 17.6304 22.8898 17.6816C22.8947 17.69 22.9013 17.6976 22.9078 17.7047C23.0092 17.8126 23.0792 17.9428 23.1621 18.0636C23.1842 18.0956 23.1994 18.1325 23.2174 18.1672C23.2422 18.215 23.2663 18.2631 23.2966 18.3078C23.313 18.332 23.3275 18.3586 23.3367 18.3861C23.3554 18.4421 23.3841 18.4935 23.4063 18.5478C23.4634 18.6882 23.5235 18.8276 23.5566 18.9765C23.564 19.0099 23.5755 19.0424 23.5863 19.075C23.5986 19.1122 23.6075 19.1499 23.6129 19.189C23.6182 19.2276 23.631 19.2652 23.6376 19.3036C23.6433 19.3373 23.6468 19.3712 23.6564 19.4045C23.6631 19.4277 23.6665 19.4524 23.668 19.4767C23.6708 19.5256 23.6746 19.5739 23.6881 19.6218C23.6958 19.6495 23.6966 19.6798 23.6971 19.709C23.699 19.8167 23.6995 19.9245 23.7005 20.0279C23.6994 20.135 23.6985 20.2378 23.6974 20.3407Z" fill="white"/>
<path d="M27.7054 13.2245C27.7056 13.2785 27.7011 13.3312 27.6873 13.3843C27.6727 13.4409 27.667 13.4995 27.6514 13.5564C27.641 13.5943 27.6311 13.6319 27.6147 13.6677C27.6125 13.6721 27.6105 13.6765 27.6085 13.681C27.5884 13.7255 27.5785 13.7745 27.5518 13.8162C27.5096 13.8821 27.4667 13.9476 27.4227 14.0124C27.409 14.0324 27.3913 14.05 27.3744 14.0675C27.3299 14.1131 27.2843 14.1575 27.2399 14.2031C27.1243 14.3209 26.9847 14.3997 26.8316 14.4564C26.7582 14.4837 26.684 14.509 26.6064 14.5219C26.5598 14.54 26.5111 14.5424 26.4619 14.5426C26.4226 14.5427 26.3835 14.5426 26.3444 14.5426V14.5432C26.3199 14.5432 26.2953 14.5434 26.2709 14.5432C26.1499 14.5422 26.1497 14.543 26.0246 14.5117C25.8959 14.4795 25.7718 14.4344 25.6567 14.3676C25.5848 14.3258 25.5154 14.28 25.457 14.2194C25.4163 14.1769 25.3742 14.1359 25.3321 14.0949C25.2578 14.0222 25.2012 13.9372 25.1528 13.8455C25.0978 13.7412 25.0523 13.6335 25.0203 13.5198C25.0123 13.4914 25.005 13.4633 25.0028 13.4338C25.001 13.4094 25.0014 13.3839 24.9938 13.3612C24.9731 13.2992 24.9748 13.2356 24.9747 13.172C24.9745 13.1476 24.9747 13.123 24.9753 13.0986C24.9759 13.0839 24.9759 13.0689 24.9792 13.0548C25.0011 12.9596 25.0138 12.8622 25.0413 12.7683C25.0718 12.6643 25.1173 12.5669 25.175 12.4753C25.1829 12.4629 25.1919 12.4511 25.1999 12.439C25.2963 12.2923 25.2963 12.2925 25.4127 12.1784C25.4442 12.1474 25.4761 12.1175 25.5142 12.0943C25.535 12.0817 25.5528 12.0644 25.5721 12.0494C25.5838 12.0405 25.595 12.0304 25.6077 12.0235C25.694 11.9772 25.7789 11.9284 25.872 11.8962C25.9552 11.8674 26.0382 11.8377 26.127 11.8302C26.1833 11.809 26.242 11.8093 26.3009 11.8094C26.3303 11.8095 26.3597 11.8098 26.3891 11.8094C26.4431 11.8089 26.4966 11.8105 26.5486 11.8288C26.5622 11.8336 26.5773 11.8355 26.5919 11.8363C26.6315 11.8387 26.6683 11.852 26.7061 11.8623C26.83 11.8958 26.9435 11.953 27.0555 12.0137C27.0726 12.023 27.0884 12.0348 27.1041 12.0465C27.116 12.055 27.1259 12.0666 27.1383 12.0742C27.227 12.1289 27.2952 12.2063 27.3676 12.2792C27.3919 12.3038 27.4074 12.3351 27.4291 12.3612C27.5244 12.4764 27.5841 12.6098 27.6326 12.7491C27.655 12.8137 27.6773 12.8786 27.6821 12.9479C27.6832 12.9624 27.6884 12.9765 27.6927 12.9905C27.7014 13.019 27.7044 13.0481 27.7047 13.0776C27.7051 13.1265 27.7051 13.1755 27.7054 13.2245Z" fill="white"/>
</g>
<defs>
<clipPath id="clip0_718_27266">
<rect width="40" height="40" rx="20" fill="white"/>
</clipPath>
</defs>
</svg>
