<svg width="24" height="24" viewBox="0 0 24 24" fill="none" xmlns="http://www.w3.org/2000/svg">
<path fill-rule="evenodd" clip-rule="evenodd" d="M12 24C18.6274 24 24 18.6274 24 12C24 5.37258 18.6274 0 12 0C5.37258 0 0 5.37258 0 12C0 18.6274 5.37258 24 12 24ZM13.698 5.00386C13.2626 5.00445 12.8264 5.00504 12.3887 5.01181L12.3892 5.01225C12.3777 6.51593 12.3784 8.01997 12.3791 9.52588C12.3795 10.3676 12.38 11.2098 12.3782 12.0529C12.3763 12.3356 12.3766 12.618 12.3769 12.9003C12.3777 13.6597 12.3784 14.4181 12.3367 15.1789C12.3306 15.39 12.2247 15.5756 12.1218 15.7558C12.1136 15.7702 12.1055 15.7845 12.0974 15.7988C11.7579 16.3523 11.1335 16.7302 10.4821 16.7372C9.49948 16.8243 8.57898 16.0198 8.44029 15.0625C8.43924 15.0156 8.43758 14.9684 8.43592 14.921C8.42643 14.651 8.41675 14.3757 8.51947 14.1241C8.66564 13.7058 8.94527 13.3471 9.31529 13.1034C9.82104 12.7521 10.4974 12.6996 11.0762 12.8868C11.0762 12.5178 11.0825 12.149 11.0888 11.7802C11.0973 11.2853 11.1057 10.7906 11.099 10.2955C9.83198 10.0584 8.47879 10.4591 7.51279 11.3004C6.66054 12.0227 6.11148 13.0846 6.00648 14.1945C5.99593 14.4838 5.99827 14.7734 6.01348 15.0625C6.13423 16.4275 6.96329 17.6993 8.14148 18.3941C8.85241 18.8132 9.68585 19.0407 10.5202 18.993C11.8804 18.9702 13.2047 18.2409 13.9677 17.1222C14.4419 16.4503 14.711 15.6387 14.7565 14.8232C14.7683 13.7029 14.7676 12.5806 14.7668 11.4569C14.7665 10.8779 14.7661 10.2985 14.7674 9.71887C15.0706 9.91706 15.3804 10.1109 15.7128 10.2614C16.4763 10.6236 17.3215 10.7986 18.1628 10.8262V8.47725C17.2651 8.37706 16.3424 8.08088 15.6901 7.43381C15.0365 6.8025 14.7154 5.89294 14.6694 5C14.3458 5.00299 14.0221 5.00343 13.698 5.00386Z" fill="#9387A8"/>
</svg>
