<svg width="40" height="40" viewBox="0 0 40 40" fill="none" xmlns="http://www.w3.org/2000/svg">
<path fill-rule="evenodd" clip-rule="evenodd" d="M20 40C31.0457 40 40 31.0457 40 20C40 8.9543 31.0457 0 20 0C8.9543 0 0 8.9543 0 20C0 31.0457 8.9543 40 20 40ZM22.83 8.33977C22.1043 8.34075 21.3773 8.34173 20.6479 8.35302L20.6486 8.35375C20.6294 10.8599 20.6307 13.3666 20.6319 15.8764C20.6326 17.2792 20.6333 18.683 20.6304 20.0882C20.6272 20.5594 20.6277 21.03 20.6282 21.5004C20.6295 22.7662 20.6307 24.0302 20.5611 25.2981C20.551 25.65 20.3745 25.9593 20.2031 26.2597C20.1894 26.2836 20.1758 26.3075 20.1623 26.3314C19.5964 27.2537 18.5559 27.8837 17.4702 27.8954C15.8325 28.0405 14.2983 26.6996 14.0671 25.1042C14.0654 25.026 14.0626 24.9473 14.0599 24.8683C14.044 24.4183 14.0279 23.9594 14.1991 23.5401C14.4427 22.843 14.9088 22.2452 15.5255 21.839C16.3684 21.2534 17.4957 21.1659 18.4604 21.478C18.4604 20.863 18.4709 20.2483 18.4814 19.6336C18.4955 18.8089 18.5096 17.9843 18.4983 17.1592C16.3866 16.764 14.1313 17.4319 12.5213 18.8341C11.1009 20.0379 10.1858 21.8076 10.0108 23.6575C9.99322 24.1397 9.99711 24.6224 10.0225 25.1042C10.2237 27.3792 11.6055 29.4989 13.5691 30.6568C14.754 31.3553 16.1431 31.7345 17.5336 31.655C19.8006 31.6171 22.0078 30.4016 23.2794 28.5371C24.0699 27.4171 24.5183 26.0645 24.5941 24.7053C24.6139 22.8382 24.6126 20.9675 24.6114 19.0946C24.6108 18.1297 24.6101 17.1641 24.6124 16.1981C25.1177 16.5284 25.6339 16.8515 26.1881 17.1023C27.4605 17.706 28.8692 17.9977 30.2714 18.0436V14.1287C28.7752 13.9618 27.2374 13.4681 26.1502 12.3897C25.0608 11.3375 24.5256 9.82156 24.449 8.33333C23.9097 8.33831 23.3702 8.33904 22.83 8.33977Z" fill="white"/>
</svg>
