<svg width="20" height="20" viewBox="0 0 20 20" fill="none" xmlns="http://www.w3.org/2000/svg">
<path d="M10.0008 18.3999C9.75077 18.3999 9.50079 18.3416 9.29246 18.2249C7.73413 17.3749 5.00078 16.4749 3.28411 16.2499L3.04246 16.2166C1.95079 16.0833 1.05078 15.0583 1.05078 13.9499V3.88324C1.05078 3.22491 1.30912 2.62493 1.78412 2.1916C2.25912 1.75827 2.87576 1.54992 3.52576 1.60826C5.35076 1.75826 8.11744 2.67493 9.6841 3.64993L9.88409 3.76661C9.94243 3.79161 10.0675 3.79995 10.1175 3.76661L10.2508 3.68325C10.8091 3.33325 11.5091 2.99157 12.2758 2.68324C12.4674 2.60824 12.6841 2.63325 12.8591 2.74992C13.0341 2.86659 13.1341 3.05825 13.1341 3.26658V5.49991L13.8258 5.04159C14.0341 4.89992 14.3091 4.89992 14.5174 5.04159L15.2091 5.49991V2.31662C15.2091 2.01662 15.4258 1.75825 15.7174 1.69991C15.9591 1.65825 16.2008 1.62492 16.4175 1.60826C16.4341 1.60826 16.5008 1.60826 16.5174 1.60826C17.1258 1.55826 17.7508 1.76661 18.2174 2.19994C18.6924 2.63328 18.9508 3.23325 18.9508 3.89158V13.9499C18.9508 15.0666 18.0508 16.0833 16.9508 16.2166L16.6758 16.2499C14.9591 16.4749 12.2091 17.3833 10.6841 18.2249C10.5008 18.3416 10.2508 18.3999 10.0008 18.3999ZM3.31742 2.84157C3.05076 2.84157 2.80912 2.93325 2.61745 3.10825C2.40912 3.29991 2.29244 3.57491 2.29244 3.88324V13.9499C2.29244 14.4416 2.71745 14.9166 3.19245 14.9832L3.44244 15.0166C5.31744 15.2666 8.19245 16.2083 9.85912 17.1249C9.93412 17.1583 10.0424 17.1666 10.0841 17.1499C11.7591 16.2249 14.6425 15.275 16.5258 15.025L16.8091 14.9916C17.2841 14.9333 17.7091 14.4499 17.7091 13.9583V3.89992C17.7091 3.59159 17.5924 3.32493 17.3841 3.12493C17.1758 2.93326 16.8841 2.84159 16.5841 2.85826C16.5591 2.85826 16.4841 2.85826 16.4674 2.85826V6.6666C16.4674 6.89993 16.3424 7.10824 16.1341 7.21657C15.9258 7.32491 15.6841 7.31659 15.4925 7.18326L14.1758 6.30827L12.8591 7.18326C12.6674 7.30826 12.4258 7.32491 12.2174 7.21657C12.0174 7.10824 11.8841 6.89993 11.8841 6.6666V4.22494C11.5258 4.39994 11.2008 4.57493 10.9174 4.7416L10.7841 4.82491C10.3258 5.10825 9.67579 5.10825 9.23412 4.83325L9.03413 4.70828C7.6258 3.82495 5.05909 2.97491 3.42576 2.84157C3.38409 2.84157 3.35076 2.84157 3.31742 2.84157Z" fill="#9453FF"/>
<path d="M10 17.7C9.65833 17.7 9.375 17.4166 9.375 17.075V4.57495C9.375 4.23328 9.65833 3.94995 10 3.94995C10.3417 3.94995 10.625 4.23328 10.625 4.57495V17.075C10.625 17.4249 10.3417 17.7 10 17.7Z" fill="#9453FF"/>
<path d="M15.8333 7.29166C15.7083 7.29166 15.5917 7.25832 15.4833 7.18332L14.1667 6.30833L12.85 7.18332C12.6583 7.30832 12.4167 7.32497 12.2084 7.21663C12.0084 7.1083 11.875 6.89999 11.875 6.66666V3.26664C11.875 3.00831 12.0333 2.7833 12.2666 2.6833C13.4166 2.22497 14.675 1.86664 15.7333 1.69997C15.9167 1.66664 16.1 1.72501 16.2417 1.84168C16.3833 1.95834 16.4583 2.13335 16.4583 2.31668V6.66666C16.4583 6.89999 16.3333 7.1083 16.125 7.21663C16.0333 7.26663 15.9333 7.29166 15.8333 7.29166ZM14.1667 4.93331C14.2833 4.93331 14.4083 4.96665 14.5167 5.04165L15.2083 5.49997V3.07499C14.5417 3.22499 13.8167 3.44166 13.125 3.69999V5.49997L13.8167 5.04165C13.925 4.96665 14.05 4.93331 14.1667 4.93331Z" fill="#9453FF"/>
</svg>
