<svg width="41" height="40" viewBox="0 0 41 40" fill="none" xmlns="http://www.w3.org/2000/svg">
<g clip-path="url(#clip0_3477_29853)">
<path d="M37.9564 30.118C37.2531 29.0845 36.062 28.8311 34.7689 29.4393L25.7534 33.409L25.7537 33.3814C25.7539 33.3596 25.753 33.3377 25.7509 33.3161C25.5931 31.7301 24.3809 30.4665 22.8028 30.2433C22.7978 30.2426 22.7928 30.2419 22.7877 30.2414L16.7935 29.5512C15.5274 29.3708 14.9042 28.9473 13.7312 28.2608C11.9954 27.2453 10.0148 26.7086 8.00375 26.7086H7.63V26.102C7.63 25.2092 6.90367 24.4828 6.01078 24.4828H4.25586C3.36305 24.4828 2.63672 25.2092 2.63672 26.102V37.3099C2.63672 38.2027 3.36305 38.9291 4.25586 38.9291H6.01086C6.8718 38.9291 7.57594 38.2532 7.62523 37.4044L13.4927 39.5884C14.2269 39.8616 14.9963 40.0001 15.7795 40.0001H23.8644C25.1038 40.0001 26.3123 39.6509 27.3604 38.9901L37.4707 33.2861C38.1786 32.8864 38.7985 31.3557 37.9564 30.118ZM36.8349 32.2993L26.7717 37.9768C26.763 37.9817 26.7545 37.9869 26.7459 37.9922C25.8829 38.5391 24.8864 38.8283 23.8644 38.8283H15.7795C15.1363 38.8283 14.5044 38.7145 13.9014 38.4901L7.63 36.1558V31.9047C7.63 31.581 7.36766 31.3187 7.04406 31.3187C6.72047 31.3187 6.45812 31.581 6.45812 31.9047V37.31C6.45812 37.5566 6.2575 37.7573 6.01078 37.7573H4.25586C4.00922 37.7573 3.80859 37.5567 3.80859 37.31V26.1021C3.80859 25.8554 4.00922 25.6547 4.25586 25.6547H6.01086C6.2575 25.6547 6.4582 25.8554 6.4582 26.1021V29.1646C6.4582 29.4883 6.72055 29.7505 7.04414 29.7505C7.36773 29.7505 7.63008 29.4883 7.63008 29.1646V27.8804H8.00391C9.80726 27.8804 11.5831 28.3617 13.1397 29.2722C14.3833 29.9991 15.1387 30.5005 16.6368 30.7126C16.6418 30.7133 16.6468 30.714 16.6519 30.7145L22.6459 31.4047C23.6739 31.5533 24.4652 32.3712 24.5816 33.4013L24.5775 33.7261C21.0951 33.6858 19.7703 33.8422 17.542 33.5169L16.5044 33.3654C16.1844 33.319 15.8866 33.5403 15.8399 33.8605C15.7932 34.1808 16.0148 34.4783 16.3351 34.525L17.3727 34.6765C19.74 35.0222 21.1054 34.8535 25.1562 34.898C25.2373 34.898 25.3227 34.8791 25.3923 34.8483L35.2482 30.5087C35.253 30.5066 35.2578 30.5044 35.2626 30.5022C35.7934 30.2512 36.5235 30.0952 36.9877 30.7772C37.3127 31.2551 37.2448 31.8994 36.8349 32.2993Z" fill="#9453FF"/>
<path d="M9.89228 13.5572C10.3651 13.9377 10.5355 14.5738 10.3163 15.1399C9.72548 16.6655 10.6974 18.3434 12.3106 18.5941C12.7054 18.6554 13.0412 18.8788 13.2518 19.1948L10.5081 24.5152C10.3434 24.8346 10.3784 25.209 10.5996 25.4923C10.8208 25.7754 11.1754 25.9 11.5253 25.8178L14.5181 25.113L15.6789 27.9599C15.8146 28.2927 16.122 28.5094 16.481 28.5253C16.4952 28.5259 16.5092 28.5263 16.5232 28.5263C16.8654 28.5263 17.1719 28.3402 17.3302 28.0334L19.8981 23.054C20.2959 23.1496 20.7045 23.1498 21.1028 23.054L23.6708 28.0334C23.829 28.3402 24.1356 28.5263 24.4777 28.5263C24.4917 28.5263 24.5058 28.5259 24.5199 28.5253C24.8789 28.5094 25.1863 28.2927 25.322 27.9599L26.4829 25.113L29.4756 25.8178C29.8256 25.9002 30.1802 25.7755 30.4013 25.4923C30.6225 25.209 30.6576 24.8346 30.4929 24.5152L27.7492 19.1948C27.9598 18.8788 28.2956 18.6554 28.6903 18.5941C30.3069 18.3428 31.2742 16.6623 30.6846 15.1399C30.4654 14.5738 30.6358 13.9377 31.1087 13.5572C32.3821 12.5321 32.3816 10.5933 31.1087 9.56859C30.6359 9.18805 30.4655 8.55195 30.6846 7.98594C31.2753 6.46031 30.3035 4.7825 28.6904 4.5318C28.0906 4.43859 27.6249 3.97297 27.5317 3.3732C27.2806 1.75664 25.6 0.789297 24.0776 1.37891C23.5113 1.59813 22.8755 1.42766 22.4949 0.954844C21.4689 -0.319687 19.53 -0.316875 18.5063 0.954844C18.1257 1.42766 17.4898 1.59797 16.9237 1.37891C15.3981 0.788125 13.7202 1.76 13.4695 3.3732C13.3763 3.97297 12.9107 4.43859 12.3109 4.5318C10.6944 4.78305 9.7272 6.46344 10.3167 7.98594C10.5359 8.55195 10.3655 9.18805 9.89259 9.56859C8.61798 10.5945 8.6204 12.5334 9.89228 13.5572ZM16.5492 26.9907L15.5185 24.4628C15.3483 24.0455 14.9064 23.8174 14.4674 23.9209L11.8103 24.5467L13.8045 20.6799C14.4331 21.7259 15.7413 22.2048 16.9234 21.7469C17.4893 21.5274 18.1254 21.698 18.5061 22.171C18.611 22.3013 18.7275 22.4189 18.8526 22.5245L16.5492 26.9907ZM26.5331 23.9209C26.0945 23.818 25.6524 24.0455 25.4821 24.4629L24.4514 26.9907L22.1481 22.5245C22.2731 22.419 22.3896 22.3014 22.4945 22.171C22.8752 21.6982 23.5113 21.528 24.0772 21.7469C25.2595 22.2047 26.5677 21.7258 27.1961 20.6799L29.1902 24.5467L26.5331 23.9209ZM10.627 10.4816C11.4991 9.77969 11.8134 8.60672 11.4092 7.56289C11.0888 6.73563 11.6157 5.82578 12.4906 5.68985C13.5967 5.51797 14.4553 4.6593 14.6272 3.55313C14.7634 2.67688 15.6745 2.1518 16.5002 2.47172C17.5442 2.87594 18.717 2.56172 19.4189 1.68969C19.9752 0.998516 21.0266 1 21.5817 1.68969C22.2835 2.56156 23.4565 2.87586 24.5005 2.47172C25.3274 2.15133 26.2375 2.67828 26.3734 3.55313C26.5453 4.65922 27.404 5.51789 28.5102 5.68985C29.3867 5.82602 29.9113 6.73727 29.5915 7.56289C29.1873 8.60672 29.5016 9.77969 30.3735 10.4816C31.0645 11.0377 31.0632 12.0892 30.3735 12.6443C29.5015 13.3462 29.1872 14.5191 29.5915 15.563C29.9118 16.3903 29.3849 17.3002 28.5101 17.4361C27.404 17.608 26.5453 18.4666 26.3734 19.5728C26.2374 20.4479 25.3277 20.9743 24.5004 20.6541C23.4567 20.2502 22.2836 20.5643 21.5817 21.4363C21.0256 22.1273 19.9741 22.1259 19.4189 21.4363C18.7182 20.5657 17.5457 20.2494 16.5002 20.6541C15.6733 20.9746 14.7631 20.4477 14.6272 19.5728C14.4553 18.4667 13.5967 17.608 12.4905 17.4361C11.6139 17.2999 11.0894 16.3887 11.4092 15.563C11.8134 14.5191 11.4991 13.3462 10.627 12.6443C9.93603 12.088 9.93751 11.0366 10.627 10.4816Z" fill="#9453FF"/>
<path d="M13.1189 12.3565C12.8009 12.416 12.5912 12.7221 12.6507 13.0402C13.3565 16.8135 16.6591 19.5522 20.5035 19.5522C24.9089 19.5522 28.4928 15.9682 28.4928 11.5629C28.4928 7.15759 24.9089 3.57361 20.5035 3.57361C16.6596 3.57361 13.3571 6.31181 12.6509 10.0844C12.5914 10.4024 12.8009 10.7085 13.119 10.7681C13.4374 10.8275 13.7432 10.6181 13.8028 10.3C14.4053 7.08158 17.2233 4.74548 20.5035 4.74548C24.2627 4.74548 27.321 7.80376 27.321 11.5629C27.321 15.322 24.2627 18.3803 20.5035 18.3803C17.2228 18.3803 14.4047 16.0439 13.8026 12.8248C13.7431 12.5067 13.4371 12.2977 13.1189 12.3565Z" fill="#9453FF"/>
<path d="M24.8149 9.38535L22.2087 9.26988L21.2935 6.82683C21.019 6.09425 19.9815 6.09441 19.707 6.82691L18.792 9.26996L16.1857 9.38542C15.4051 9.41988 15.0827 10.4061 15.6955 10.8943L17.7361 12.5196L17.0406 15.0339C16.832 15.7881 17.6713 16.3977 18.3241 15.9665L20.5003 14.528L22.6767 15.9666C23.327 16.3962 24.1695 15.7906 23.9602 15.0339L23.2646 12.5196L25.3052 10.8943C25.9174 10.4065 25.5962 9.4198 24.8149 9.38535ZM22.3666 11.7366C22.1005 11.9485 21.9872 12.2973 22.0779 12.625L22.5995 14.5106L20.9674 13.4318C20.9674 13.4318 20.9674 13.4317 20.9673 13.4317C20.8255 13.338 20.6629 13.2911 20.5003 13.2911C20.3377 13.2911 20.1751 13.338 20.0331 13.4318L18.401 14.5106L18.9227 12.6251C19.0134 12.2973 18.9001 11.9485 18.634 11.7366L17.1037 10.5177L19.0584 10.4311C19.3981 10.4161 19.6947 10.2005 19.814 9.88207L20.5002 8.05003L21.1866 9.88214C21.3059 10.2005 21.6025 10.4161 21.9424 10.4311L23.8968 10.5177L22.3666 11.7366Z" fill="#9453FF"/>
</g>
<defs>
<clipPath id="clip0_3477_29853">
<rect x="0.5" width="40" height="40" fill="white"/>
</clipPath>
</defs>
</svg>
