<svg width="20" height="20" viewBox="0 0 20 20" fill="none" xmlns="http://www.w3.org/2000/svg">
<path d="M17.5 18.3333H2.5C2.15833 18.3333 1.875 18.05 1.875 17.7083C1.875 17.3667 2.15833 17.0833 2.5 17.0833H17.5C17.8417 17.0833 18.125 17.3667 18.125 17.7083C18.125 18.05 17.8417 18.3333 17.5 18.3333Z" fill="#554766"/>
<path d="M15.8495 2.9C14.2328 1.28333 12.6495 1.24166 10.9912 2.9L9.98283 3.90833C9.89949 3.99166 9.86616 4.125 9.89949 4.24166C10.5328 6.45 12.2995 8.21666 14.5078 8.85C14.5412 8.85833 14.5745 8.86666 14.6078 8.86666C14.6995 8.86666 14.7828 8.83333 14.8495 8.76666L15.8495 7.75833C16.6745 6.94166 17.0745 6.15 17.0745 5.35C17.0828 4.525 16.6828 3.725 15.8495 2.9Z" fill="#554766"/>
<path d="M13.007 9.60833C12.7653 9.49166 12.532 9.375 12.307 9.24166C12.1236 9.13333 11.9486 9.01666 11.7736 8.89166C11.632 8.8 11.4653 8.66666 11.307 8.53333C11.2903 8.525 11.232 8.475 11.1653 8.40833C10.8903 8.175 10.582 7.875 10.307 7.54166C10.282 7.525 10.2403 7.46666 10.182 7.39166C10.0986 7.29166 9.95697 7.125 9.83197 6.93333C9.73197 6.80833 9.6153 6.625 9.50697 6.44166C9.37364 6.21666 9.25697 5.99166 9.1403 5.75833C8.98734 5.43055 8.55713 5.33317 8.30135 5.58895L3.6153 10.275C3.50697 10.3833 3.40697 10.5917 3.38197 10.7333L2.93197 13.925C2.84864 14.4917 3.00697 15.025 3.35697 15.3833C3.65697 15.675 4.07364 15.8333 4.52364 15.8333C4.62364 15.8333 4.72364 15.825 4.82364 15.8083L8.02364 15.3583C8.17364 15.3333 8.38197 15.2333 8.48197 15.125L13.1758 10.4312C13.4264 10.1806 13.3322 9.74928 13.007 9.60833Z" fill="#554766"/>
</svg>
