<svg width="24" height="24" viewBox="0 0 24 24" fill="none" xmlns="http://www.w3.org/2000/svg">
<g clip-path="url(#clip0_985_25337)">
<path d="M4.2454 0L0.0014424 4.24395L0 4.24251V24H19.8657L24 19.8657V0H4.2454ZM18.7109 13.8208C18.7109 13.8561 18.7112 13.8913 18.7008 13.9258C18.6941 13.9485 18.696 13.9725 18.6959 13.996C18.6951 14.1196 18.6944 14.2432 18.6937 14.3667C18.6936 14.3873 18.694 14.408 18.6929 14.4285C18.6921 14.4432 18.6912 14.4582 18.6872 14.4721C18.6791 14.5009 18.6782 14.5301 18.6779 14.5596C18.6774 14.6361 18.6766 14.7126 18.676 14.7891C18.6758 14.8185 18.6751 14.8479 18.6661 14.8765C18.6607 14.8934 18.6606 14.9113 18.6603 14.9289C18.6597 14.9672 18.659 15.0054 18.6585 15.0436C18.6582 15.0702 18.6568 15.0965 18.6485 15.1221C18.642 15.142 18.6424 15.1628 18.642 15.1833C18.6411 15.2186 18.6394 15.2536 18.6297 15.2881C18.6242 15.3076 18.625 15.3289 18.6239 15.3494C18.6228 15.373 18.6214 15.3964 18.614 15.4191C18.6084 15.436 18.6071 15.4536 18.6061 15.4713C18.6052 15.489 18.6026 15.5063 18.5972 15.5233C18.5946 15.5317 18.592 15.5404 18.5913 15.549C18.5885 15.5813 18.5831 15.6129 18.5758 15.6446C18.5686 15.676 18.5653 15.7083 18.556 15.7394C18.5495 15.8011 18.5294 15.8598 18.5157 15.9199C18.502 15.9801 18.485 16.0395 18.4649 16.0979C18.4572 16.1201 18.4514 16.1429 18.4452 16.1656C18.4335 16.2081 18.421 16.2507 18.4042 16.2912C18.376 16.3592 18.3547 16.4297 18.3254 16.4972C18.3149 16.5215 18.3052 16.5461 18.2939 16.57C18.2776 16.6045 18.2604 16.6385 18.2475 16.6748C18.2366 16.7052 18.2211 16.7338 18.2037 16.7612C18.1942 16.7761 18.1842 16.7909 18.1768 16.8067C18.1482 16.8682 18.1115 16.9252 18.0777 16.9837C18.0645 17.0066 18.0497 17.0286 18.035 17.0506C18.0073 17.0922 17.9788 17.1333 17.9511 17.1749C17.9331 17.2018 17.9153 17.2287 17.8925 17.252C17.8824 17.2625 17.8745 17.2752 17.8655 17.2868C17.8547 17.3007 17.8441 17.3147 17.8328 17.3283C17.8254 17.3375 17.8158 17.345 17.8096 17.3548C17.781 17.4 17.7421 17.4362 17.7056 17.4744C17.6771 17.5041 17.646 17.5315 17.6248 17.5674C17.5884 17.6057 17.5536 17.6458 17.5103 17.6771C17.496 17.6873 17.4827 17.699 17.4698 17.711C17.4463 17.7332 17.4235 17.7562 17.4002 17.7787C17.377 17.8011 17.3544 17.8243 17.3261 17.8409C17.3185 17.8454 17.3118 17.8514 17.3053 17.8573C17.2555 17.9033 17.2002 17.9423 17.1441 17.9799C17.1123 18.0012 17.0831 18.0259 17.0515 18.0474C17.0053 18.0789 16.9559 18.105 16.909 18.1353C16.8769 18.1561 16.8439 18.1755 16.8102 18.1934C16.7583 18.2209 16.7054 18.247 16.6527 18.2731C16.6211 18.2887 16.5901 18.3056 16.5558 18.3155C16.5475 18.3179 16.5395 18.3221 16.5316 18.3259C16.4467 18.3668 16.3582 18.3987 16.2692 18.4291C16.2135 18.448 16.1577 18.4667 16.1019 18.485C16.0684 18.4959 16.0342 18.5047 16.0001 18.5136C15.9632 18.5232 15.9273 18.5366 15.8898 18.5444C15.8553 18.5517 15.8219 18.5639 15.7874 18.5704C15.7499 18.5774 15.7127 18.5865 15.6752 18.5929C15.6548 18.5964 15.6346 18.5996 15.6147 18.605C15.6006 18.6088 15.5858 18.6097 15.5713 18.6117C15.5567 18.6138 15.5417 18.6141 15.5278 18.6181C15.505 18.6246 15.4821 18.6291 15.4584 18.6299C15.4526 18.6301 15.4465 18.63 15.4409 18.6315C15.4009 18.6423 15.3604 18.6485 15.3191 18.6489C15.3162 18.6489 15.3131 18.6493 15.3103 18.6503C15.2648 18.6651 15.2176 18.6643 15.1706 18.6654C15.153 18.6658 15.1352 18.6664 15.1182 18.6718C15.0927 18.6799 15.0664 18.6815 15.0398 18.6819C15.0133 18.6821 14.9869 18.6827 14.9604 18.683C14.931 18.6833 14.9016 18.6842 14.8731 18.6932C14.8533 18.6995 14.8325 18.6989 14.8119 18.6991C14.7442 18.6997 14.6765 18.7003 14.6089 18.7008C14.5795 18.7011 14.5502 18.7016 14.5216 18.7104C14.4988 18.7174 14.475 18.7164 14.4514 18.7166C14.3515 18.7173 14.2515 18.7179 14.1515 18.7186C14.125 18.7187 14.0985 18.7189 14.072 18.7189C14.0455 18.7189 14.0192 18.7202 13.9935 18.7279C13.9764 18.7329 13.9587 18.7337 13.941 18.7338C13.9145 18.734 13.8881 18.7342 13.8616 18.7342C13.2351 18.735 12.6086 18.7358 11.982 18.7366C11.3585 18.7358 10.7349 18.735 10.1113 18.7342C10.0849 18.7341 10.0584 18.7339 10.0319 18.7338C10.0142 18.7336 9.99658 18.7327 9.97951 18.7275C9.9509 18.7188 9.9215 18.719 9.89209 18.7188C9.77445 18.7182 9.65681 18.7174 9.5391 18.7166C9.50384 18.7165 9.46858 18.7169 9.4342 18.7061C9.41441 18.7 9.3935 18.7011 9.3729 18.7009C9.30815 18.7003 9.24349 18.6998 9.17874 18.6993C9.14636 18.699 9.11431 18.6983 9.08258 18.6892C9.06591 18.6845 9.04772 18.6843 9.03017 18.6835C9.00084 18.6823 8.97135 18.6824 8.94194 18.6819C8.91253 18.6815 8.88336 18.6804 8.85468 18.6718C8.84081 18.6677 8.82575 18.6667 8.81117 18.6658C8.78769 18.6645 8.76405 18.6649 8.74057 18.6636C8.72598 18.6628 8.71092 18.6621 8.69705 18.658C8.67133 18.6504 8.64521 18.6474 8.61868 18.6467C8.59801 18.6462 8.57782 18.643 8.55794 18.6371C8.54672 18.6338 8.53495 18.6317 8.52333 18.6307C8.49696 18.6285 8.47084 18.6261 8.4452 18.6179C8.43149 18.6134 8.41627 18.6137 8.40168 18.6117C8.38718 18.6096 8.37219 18.6089 8.35833 18.6047C8.31874 18.593 8.27676 18.5931 8.23781 18.5788C8.1733 18.5715 8.11216 18.5489 8.04869 18.5369C7.99324 18.5173 7.93547 18.5055 7.87969 18.487C7.80709 18.463 7.73401 18.4403 7.66237 18.4139C7.61277 18.3956 7.56381 18.3753 7.51372 18.3584C7.49986 18.3536 7.4868 18.3466 7.47342 18.3405C7.45739 18.3331 7.44192 18.3241 7.42534 18.3183C7.34448 18.2898 7.271 18.246 7.19423 18.209C7.12492 18.1648 7.04975 18.1302 6.98236 18.0825C6.96569 18.0706 6.94726 18.0611 6.92971 18.0504C6.91969 18.0442 6.90887 18.0389 6.90006 18.0314C6.86873 18.0045 6.83299 17.9838 6.79989 17.9594C6.75734 17.928 6.71327 17.8986 6.67464 17.8623C6.67032 17.8582 6.66623 17.8538 6.66126 17.8507C6.60845 17.8174 6.56727 17.7709 6.52255 17.7285C6.51181 17.7184 6.50148 17.7079 6.49106 17.6976C6.47639 17.6831 6.46117 17.6694 6.4441 17.6576C6.40996 17.634 6.38087 17.6049 6.35716 17.5708C6.34538 17.5537 6.33167 17.5385 6.31725 17.5238C6.2884 17.4944 6.25963 17.4649 6.23086 17.4355C6.21035 17.4144 6.18968 17.3935 6.17453 17.3679C6.17012 17.3604 6.16427 17.3535 6.15826 17.3471C6.11804 17.304 6.08614 17.2544 6.04992 17.2082C6.00264 17.1479 5.96098 17.0839 5.91987 17.0195C5.88349 16.9625 5.84727 16.9054 5.81697 16.8448C5.80247 16.8159 5.78797 16.7871 5.7701 16.7599C5.75888 16.7429 5.74886 16.7243 5.74221 16.705C5.73059 16.6715 5.71472 16.6401 5.69886 16.6086C5.65911 16.5296 5.62714 16.4474 5.59837 16.364C5.58499 16.325 5.57161 16.2862 5.5559 16.248C5.54468 16.221 5.53587 16.1927 5.52849 16.1643C5.52337 16.1444 5.51816 16.1246 5.51151 16.1051C5.48113 16.0159 5.4591 15.9245 5.43762 15.8329C5.43097 15.8043 5.4216 15.7765 5.41903 15.7468C5.41647 15.7176 5.40541 15.6899 5.40124 15.6606C5.39587 15.6229 5.38449 15.5861 5.38265 15.5478C5.38225 15.5391 5.37864 15.5306 5.37688 15.5219C5.374 15.5076 5.36983 15.4933 5.36903 15.4788C5.36711 15.4464 5.36494 15.4143 5.35501 15.383C5.35156 15.372 5.35124 15.3598 5.35076 15.3481C5.34964 15.3186 5.34691 15.2896 5.33842 15.261C5.33433 15.2471 5.33417 15.2319 5.33345 15.2173C5.33233 15.1968 5.33265 15.1761 5.33161 15.1555C5.33089 15.1409 5.33129 15.1255 5.32688 15.1118C5.3151 15.0746 5.31574 15.0363 5.31502 14.9982C5.3147 14.9776 5.3143 14.957 5.31414 14.9363C5.3139 14.904 5.31342 14.8717 5.30364 14.8403C5.29747 14.8204 5.29835 14.7995 5.29819 14.7789C5.29747 14.6995 5.29675 14.62 5.29619 14.5406C5.29595 14.5111 5.29507 14.4818 5.28633 14.4532C5.27936 14.4305 5.28072 14.4066 5.28056 14.3831C5.27984 14.2889 5.27928 14.1947 5.2788 14.1005C5.27856 14.0594 5.2784 14.0182 5.27824 13.977C5.27816 13.9476 5.27728 13.9183 5.26926 13.8895C5.26534 13.8755 5.26429 13.8605 5.26373 13.8459C5.26277 13.8194 5.26301 13.7929 5.26301 13.7665V10.2C5.26301 10.1794 5.26325 10.1589 5.26317 10.1383C5.26309 10.1117 5.26429 10.0854 5.27191 10.0596C5.27695 10.0426 5.27784 10.0249 5.278 10.0072C5.27824 9.96597 5.2784 9.92478 5.27864 9.88359C5.27928 9.77477 5.27992 9.66587 5.28064 9.55697C5.28072 9.53341 5.28048 9.50977 5.28737 9.48693C5.29506 9.46121 5.29603 9.43484 5.29619 9.40832C5.29675 9.32883 5.29747 9.24942 5.29819 9.17C5.29835 9.14644 5.29771 9.12272 5.3046 9.09989C5.31237 9.07424 5.31382 9.04788 5.31398 9.02136C5.3143 8.98898 5.3151 8.95661 5.31542 8.92423C5.31574 8.89474 5.31734 8.86558 5.32584 8.83697C5.33 8.82302 5.33064 8.80796 5.33145 8.79329C5.33273 8.76982 5.33257 8.74626 5.33361 8.72278C5.33409 8.711 5.33401 8.69882 5.3373 8.68776C5.34659 8.65643 5.3502 8.62453 5.35116 8.592C5.35148 8.5803 5.35268 8.5682 5.35629 8.55722C5.36462 8.53166 5.36719 8.50546 5.36799 8.47893C5.36863 8.45826 5.37175 8.43798 5.378 8.41819C5.38065 8.40986 5.38321 8.40104 5.38353 8.39239C5.38465 8.35681 5.39507 8.32291 5.40076 8.28821C5.40565 8.25913 5.4123 8.23068 5.41919 8.20215C5.42472 8.17931 5.43105 8.15655 5.43546 8.13356C5.43995 8.11048 5.44299 8.08732 5.44884 8.0644C5.4591 8.02449 5.47152 7.98523 5.48178 7.94548C5.5083 7.84283 5.54508 7.74355 5.57754 7.64282C5.59837 7.57839 5.62538 7.51637 5.64942 7.45322C5.69661 7.32917 5.76056 7.21306 5.82058 7.09519C5.84182 7.05336 5.86722 7.01353 5.89222 6.97378C5.9048 6.95383 5.9173 6.93396 5.92876 6.91336C5.93445 6.9031 5.93998 6.89245 5.94759 6.88363C5.97444 6.85222 5.99511 6.81648 6.01931 6.78314C6.0452 6.74757 6.07124 6.71199 6.098 6.67697C6.12837 6.63738 6.15682 6.59611 6.19344 6.56166C6.19777 6.55765 6.20186 6.55316 6.20482 6.54819C6.22774 6.50973 6.26019 6.4796 6.29129 6.44843C6.37639 6.36301 6.46197 6.27798 6.54747 6.19288C6.5663 6.17421 6.58522 6.15586 6.60805 6.14184C6.61799 6.13575 6.62697 6.12789 6.63578 6.12012C6.65557 6.10257 6.67352 6.08246 6.69492 6.06723C6.73811 6.03662 6.7785 6.0024 6.82313 5.9738C6.8652 5.94679 6.90214 5.91225 6.94566 5.88765C6.98412 5.86594 7.02162 5.84278 7.05824 5.81826C7.08525 5.80015 7.11322 5.7842 7.14214 5.76962C7.20256 5.73925 7.26283 5.70847 7.32333 5.67826C7.42814 5.62602 7.42822 5.62618 7.55764 5.57633C7.62134 5.54556 7.69058 5.52922 7.75509 5.50029C7.7764 5.49067 7.79916 5.4833 7.82192 5.47801C7.86214 5.46871 7.90085 5.45493 7.94027 5.44307C8.01896 5.41927 8.09814 5.397 8.17947 5.38385C8.18813 5.38241 8.19662 5.37985 8.2052 5.37768C8.23653 5.36983 8.26762 5.36085 8.29927 5.35436C8.32804 5.34851 8.35745 5.34651 8.38566 5.33738C8.39663 5.33385 8.4089 5.33433 8.42052 5.33281C8.4351 5.33088 8.45024 5.33088 8.46403 5.32656C8.48967 5.31838 8.51571 5.31582 8.54224 5.31462C8.55402 5.31414 8.56628 5.31438 8.57726 5.31093C8.61428 5.29899 8.65226 5.29731 8.69056 5.29619C8.70226 5.29587 8.71444 5.29539 8.72542 5.29178C8.75964 5.28072 8.79482 5.28 8.83016 5.27944C8.86253 5.27896 8.89458 5.27784 8.92624 5.26862C8.9429 5.26381 8.96109 5.26349 8.97864 5.26293C9.01679 5.26173 9.05509 5.26165 9.09332 5.26117C9.11688 5.26085 9.14035 5.26021 9.16319 5.25316C9.18595 5.2461 9.20951 5.24554 9.23307 5.24538C9.30952 5.24474 9.38604 5.24418 9.46249 5.24346C9.5036 5.24314 9.54503 5.24538 9.58485 5.23152C9.60537 5.23024 9.62588 5.22807 9.6464 5.22791C9.74055 5.22695 9.83463 5.22647 9.92879 5.22607C10.017 5.22567 10.1052 5.22543 10.1935 5.22519C10.223 5.22511 10.2523 5.22503 10.2809 5.21637C10.298 5.21117 10.3157 5.2106 10.3334 5.21052C10.354 5.21036 10.3746 5.2102 10.3952 5.2102C11.457 5.2102 12.5188 5.2102 13.5806 5.21028C13.6012 5.21028 13.6218 5.21036 13.6424 5.21052C13.6601 5.21068 13.6778 5.21165 13.6948 5.21677C13.7234 5.22535 13.7528 5.22511 13.7823 5.22527C13.944 5.22591 14.1058 5.22663 14.2676 5.22743C14.2941 5.22751 14.3206 5.22775 14.347 5.22807C14.3647 5.22823 14.3824 5.22904 14.3994 5.23424C14.4252 5.24194 14.4514 5.24314 14.4781 5.2433C14.5603 5.24386 14.6427 5.24458 14.7251 5.24522C14.7575 5.24546 14.7895 5.24642 14.8213 5.25524C14.838 5.25989 14.8561 5.26029 14.8737 5.26085C14.9149 5.26205 14.956 5.26221 14.9972 5.26277C15.0178 5.26301 15.0383 5.26445 15.0582 5.2707C15.0781 5.27695 15.0985 5.27848 15.1192 5.27888C15.1398 5.27928 15.1604 5.27936 15.1809 5.28056C15.1956 5.28136 15.2107 5.28184 15.2245 5.28609C15.2531 5.29482 15.2823 5.29675 15.3117 5.29739C15.3353 5.29787 15.3586 5.29995 15.3813 5.30733C15.3868 5.30917 15.3927 5.31093 15.3985 5.31133C15.4454 5.31422 15.4919 5.32031 15.5377 5.33161C15.588 5.33297 15.636 5.34843 15.6849 5.35749C15.731 5.36598 15.7773 5.37432 15.8227 5.38658C15.8652 5.39812 15.9077 5.41006 15.9507 5.41927C15.9768 5.4248 16.0017 5.4333 16.027 5.44091C16.0692 5.45365 16.1105 5.4692 16.1538 5.47833C16.1738 5.48258 16.1937 5.48923 16.2124 5.49748C16.269 5.52264 16.3283 5.54011 16.3863 5.56127C16.4028 5.56728 16.4195 5.57313 16.4355 5.58058C16.4674 5.59557 16.4994 5.61023 16.5329 5.62161C16.5495 5.6273 16.5651 5.63603 16.5809 5.64389C16.6441 5.67522 16.7072 5.70703 16.7705 5.7382C16.8365 5.77074 16.9013 5.80536 16.9615 5.84799C16.9927 5.87002 17.0285 5.88477 17.0591 5.90817C17.0893 5.93133 17.1214 5.95216 17.1521 5.97492C17.1805 5.99583 17.212 6.01242 17.2374 6.03734C17.2747 6.0613 17.3078 6.09039 17.3395 6.12116C17.3437 6.12525 17.348 6.1295 17.353 6.13246C17.3963 6.15874 17.4302 6.19585 17.4656 6.23103C17.5511 6.31613 17.636 6.40171 17.7211 6.48729C17.7438 6.51029 17.7669 6.53305 17.7836 6.56125C17.788 6.56879 17.7941 6.57544 17.8001 6.58185C17.82 6.60349 17.8402 6.62488 17.855 6.65068C17.8971 6.6962 17.9321 6.74692 17.9658 6.79877C18.0184 6.85903 18.0536 6.93075 18.0963 6.9975C18.1185 7.03212 18.1397 7.06762 18.1585 7.10408C18.2016 7.18782 18.2436 7.27212 18.2846 7.35682C18.3013 7.39112 18.3151 7.42694 18.3287 7.4626C18.3518 7.52294 18.3777 7.58232 18.397 7.64418C18.411 7.68905 18.4279 7.73305 18.4419 7.77792C18.4567 7.82568 18.4741 7.87248 18.4855 7.92136C18.4969 7.96992 18.5151 8.0168 18.5254 8.06576C18.5355 8.11464 18.5442 8.16401 18.5578 8.21193C18.5699 8.25456 18.5719 8.29887 18.5849 8.34126C18.5909 8.36057 18.5871 8.38277 18.5928 8.40224C18.6028 8.43662 18.6048 8.47156 18.6082 8.50674C18.6107 8.53286 18.6186 8.5585 18.6224 8.58463C18.6257 8.60787 18.6266 8.63143 18.6285 8.65491C18.6423 8.69153 18.641 8.73007 18.6418 8.76829C18.6424 8.7977 18.6433 8.82703 18.6526 8.85548C18.6581 8.87247 18.6581 8.89026 18.6585 8.90797C18.659 8.94322 18.6597 8.97856 18.6601 9.0139C18.6605 9.04331 18.6609 9.07272 18.6699 9.10125C18.6762 9.12112 18.6758 9.14196 18.6759 9.16255C18.6767 9.239 18.6775 9.31553 18.6779 9.39205C18.6782 9.41858 18.6795 9.44494 18.6871 9.47066C18.694 9.4935 18.6933 9.51722 18.6935 9.5407C18.6941 9.62901 18.6947 9.71724 18.6952 9.80554C18.6955 9.8497 18.6957 9.89385 18.6957 9.93792C18.6958 9.97326 18.6964 10.0084 18.7062 10.043C18.7101 10.0568 18.7101 10.0721 18.7105 10.0867C18.7113 10.1161 18.7111 10.1455 18.7111 10.175C18.7114 11.2136 18.7117 12.2524 18.7118 13.2911C18.7118 13.4676 18.7113 13.6443 18.7109 13.8208Z" fill="#9387A8"/>
<path d="M15.4345 11.8395C15.4345 11.8188 15.4328 11.7984 15.4267 11.7785C15.4205 11.7586 15.4192 11.7381 15.4188 11.7175C15.4184 11.6911 15.418 11.6646 15.417 11.6382C15.4165 11.6264 15.4163 11.6144 15.4133 11.6032C15.4056 11.5747 15.3994 11.546 15.4001 11.5164C15.4009 11.4834 15.3855 11.4535 15.3835 11.4211C15.3833 11.4182 15.383 11.4153 15.3829 11.4123C15.3818 11.3917 15.3781 11.3718 15.3727 11.3517C15.3635 11.3178 15.3555 11.2834 15.3488 11.2488C15.3379 11.1936 15.3128 11.0867 15.296 11.0354C15.2631 10.935 15.2321 10.8339 15.1918 10.7359C15.1617 10.6626 15.1337 10.5885 15.0972 10.5179C15.0689 10.463 15.0406 10.4082 15.0143 10.3524C14.9853 10.2911 14.9464 10.2356 14.9144 10.1762C14.8557 10.0919 14.8045 10.0024 14.7393 9.92255C14.7226 9.89113 14.6951 9.86773 14.6766 9.8376C14.6563 9.80475 14.6262 9.78031 14.6012 9.75162C14.5915 9.74056 14.5817 9.7295 14.5737 9.71724C14.5623 9.69993 14.549 9.68439 14.5344 9.6698C14.4556 9.59079 14.3767 9.51178 14.2976 9.43301C14.2872 9.42267 14.2766 9.41193 14.2644 9.40424C14.2366 9.38693 14.214 9.36386 14.1902 9.34206C14.1729 9.32627 14.1558 9.30992 14.137 9.29606C14.1203 9.28396 14.1045 9.2709 14.0879 9.2588C14.0428 9.22603 13.9995 9.19085 13.9529 9.16008C13.9039 9.1277 13.8547 9.09557 13.806 9.06279C13.7695 9.03819 13.7292 9.01984 13.6932 8.9942C13.6813 8.9857 13.6674 8.98025 13.6543 8.97352C13.6308 8.96142 13.6079 8.94828 13.5855 8.93426C13.5456 8.90942 13.5037 8.88778 13.4596 8.87119C13.432 8.86086 13.4054 8.84868 13.3792 8.83561C13.3159 8.80428 13.2502 8.7788 13.1837 8.75556C13.1033 8.72751 13.0223 8.70131 12.9415 8.67447C12.9248 8.66894 12.9081 8.66333 12.891 8.659C12.8255 8.64257 12.7601 8.62647 12.6945 8.61052C12.6831 8.60779 12.6715 8.60531 12.6599 8.60443C12.6364 8.60259 12.6135 8.59882 12.5906 8.59289C12.5651 8.58632 12.5383 8.58464 12.5128 8.57815C12.4898 8.5723 12.4669 8.56885 12.4433 8.56837C12.4139 8.56781 12.3849 8.5654 12.3563 8.55683C12.3425 8.55266 12.3273 8.55218 12.3128 8.55154C12.2833 8.55034 12.254 8.55018 12.2246 8.54978C12.201 8.54938 12.1776 8.5485 12.1548 8.54152C12.1349 8.53551 12.1144 8.53423 12.0938 8.53423C12.0233 8.53415 11.9528 8.53407 11.8823 8.53415C11.8647 8.53423 11.8469 8.53431 11.8299 8.5396C11.8014 8.54858 11.7721 8.54938 11.7427 8.5497C11.7104 8.5501 11.6781 8.55042 11.6458 8.55162C11.6312 8.55218 11.6161 8.55298 11.6023 8.55715C11.5737 8.56572 11.5446 8.56749 11.5152 8.56861C11.5005 8.56917 11.485 8.56805 11.4715 8.5727C11.4378 8.5844 11.4017 8.58287 11.368 8.59305C11.3481 8.59906 11.3278 8.6013 11.3076 8.60467C11.2845 8.6086 11.2619 8.61549 11.2389 8.61989C11.1835 8.63031 11.0861 8.65307 11.0339 8.67006C10.9419 8.70011 10.8495 8.72976 10.7582 8.76197C10.7057 8.78048 10.6535 8.80036 10.6032 8.8248C10.5663 8.84283 10.5299 8.86182 10.4906 8.87488C10.4768 8.87945 10.4636 8.88666 10.4513 8.89451C10.4314 8.90717 10.4105 8.91727 10.3889 8.92681C10.3649 8.93746 10.3433 8.95333 10.32 8.96583C10.289 8.9825 10.2582 8.99933 10.2284 9.0184C10.1963 9.03891 10.1624 9.05654 10.1308 9.0781C10.0556 9.1293 9.97762 9.17642 9.9067 9.23388C9.88034 9.24758 9.86143 9.27146 9.83643 9.28669C9.81359 9.30063 9.79444 9.31866 9.77505 9.33669C9.75565 9.35464 9.73746 9.37451 9.71591 9.38934C9.68658 9.40953 9.6611 9.43357 9.63618 9.45841C9.57367 9.52068 9.51141 9.58302 9.44931 9.64552C9.42447 9.67053 9.39955 9.69529 9.38031 9.72542C9.37102 9.74016 9.35788 9.7525 9.34586 9.7654C9.32791 9.7848 9.30924 9.80355 9.29577 9.82663C9.29137 9.83424 9.28544 9.84097 9.27991 9.84778C9.21348 9.92856 9.19152 9.95772 9.13783 10.038C9.11331 10.0746 9.09024 10.1122 9.06443 10.148C9.04192 10.1791 9.02685 10.2145 9.00505 10.2458C8.98142 10.2799 8.96427 10.3171 8.94536 10.3537C8.92653 10.3902 8.90826 10.4271 8.8899 10.4639C8.86763 10.5086 8.84487 10.5531 8.8238 10.5984C8.81017 10.6276 8.79888 10.6579 8.78718 10.6881C8.76258 10.7509 8.73621 10.8131 8.71554 10.8775C8.69494 10.9418 8.67363 11.0058 8.65584 11.071C8.64422 11.1134 8.63292 11.156 8.62058 11.1983C8.61153 11.2294 8.61337 11.2626 8.60079 11.2929C8.59518 11.3425 8.57715 11.39 8.57563 11.4402C8.56465 11.486 8.55848 11.5324 8.55567 11.5794C8.55511 11.588 8.55207 11.5966 8.54958 11.605C8.54462 11.6221 8.54285 11.6396 8.54245 11.6573C8.54173 11.6896 8.54117 11.7219 8.54045 11.7542C8.54005 11.7719 8.53973 11.7897 8.53436 11.8066C8.52522 11.8351 8.5249 11.8645 8.5249 11.8939C8.5249 11.9762 8.5249 12.0585 8.52498 12.1408C8.52498 12.1702 8.52619 12.1994 8.5346 12.2281C8.53869 12.242 8.53949 12.257 8.54029 12.2717C8.54149 12.2951 8.54157 12.3186 8.54189 12.3421C8.54229 12.3686 8.54381 12.3949 8.55215 12.4205C8.55856 12.4403 8.55848 12.461 8.55912 12.4816C8.55984 12.5081 8.56136 12.5343 8.5697 12.5599C8.5733 12.571 8.57499 12.5828 8.57627 12.5944C8.58092 12.6382 8.5979 12.6799 8.59782 12.7246C8.59782 12.7303 8.60047 12.736 8.60183 12.7416C8.63108 12.8645 8.66185 12.9869 8.70392 13.1061C8.71073 13.1255 8.71706 13.145 8.72371 13.1645C8.75673 13.262 8.79222 13.3583 8.83886 13.4503C8.84679 13.4659 8.8532 13.4824 8.85938 13.4989C8.87588 13.5431 8.89664 13.5855 8.92124 13.6254C8.94135 13.658 8.95962 13.6914 8.97693 13.7254C8.99295 13.7569 9.01058 13.7872 9.03014 13.8167C9.05129 13.8484 9.07173 13.8807 9.09032 13.9141C9.11596 13.9604 9.15098 14.0005 9.18102 14.044C9.20603 14.0801 9.22951 14.1175 9.26092 14.149C9.26709 14.1551 9.27246 14.1624 9.27702 14.1699C9.28928 14.1901 9.30451 14.2078 9.32054 14.2252C9.33047 14.2359 9.34073 14.2468 9.34834 14.2591C9.36405 14.2845 9.38456 14.3054 9.40524 14.3263C9.48168 14.4035 9.55805 14.4809 9.63521 14.5576C9.67472 14.5968 9.71254 14.6382 9.76046 14.668C9.76543 14.6711 9.76984 14.6752 9.77384 14.6795C9.80614 14.7141 9.84508 14.7407 9.8825 14.7689C9.92698 14.8024 9.97065 14.8371 10.0173 14.8679C10.0589 14.8954 10.1001 14.9235 10.1419 14.9509C10.1763 14.9734 10.2106 14.996 10.2478 15.0138C10.2637 15.0214 10.2784 15.0313 10.2936 15.0403C10.3087 15.0492 10.3233 15.0592 10.339 15.0671C10.4466 15.1211 10.5525 15.1787 10.6652 15.2218C10.7091 15.2385 10.7523 15.2571 10.7966 15.2726C10.8686 15.2977 10.9414 15.3211 11.0138 15.3449C11.0278 15.3496 11.0417 15.3542 11.056 15.3578C11.1185 15.3736 11.181 15.3897 11.2439 15.4042C11.2839 15.4133 11.3242 15.4209 11.3645 15.4281C11.3904 15.4328 11.417 15.4328 11.4425 15.4411C11.4708 15.4503 11.5009 15.4461 11.5299 15.4503C11.5357 15.4511 11.5416 15.4519 11.5472 15.4539C11.5725 15.4631 11.5988 15.4645 11.6253 15.465C11.6606 15.4656 11.6955 15.4671 11.73 15.4768C11.7466 15.4815 11.7649 15.4814 11.7824 15.4816C11.8471 15.4821 11.9117 15.4817 11.9764 15.4817C12.0439 15.4817 12.1115 15.4821 12.179 15.4815C12.1966 15.4813 12.2148 15.4812 12.2314 15.4764C12.266 15.4666 12.301 15.4658 12.3362 15.4649C12.3567 15.4644 12.3774 15.4644 12.3973 15.458C12.4199 15.4508 12.4431 15.4482 12.4667 15.4476C12.4873 15.4471 12.5076 15.4446 12.5275 15.4388C12.5415 15.4347 12.5562 15.432 12.5707 15.4308C12.5942 15.4288 12.6171 15.4252 12.64 15.4191C12.6654 15.4123 12.6919 15.4096 12.7176 15.4038C12.7576 15.3948 12.7976 15.3849 12.8373 15.3748C12.8714 15.3661 12.9057 15.3578 12.9391 15.347C13.0425 15.3136 13.146 15.2812 13.2469 15.2402C13.3789 15.1864 13.3796 15.188 13.4885 15.1338C13.5201 15.1181 13.5513 15.1017 13.5832 15.0866C13.6542 15.053 13.7668 14.9852 13.8341 14.9403C13.9683 14.8506 14.011 14.8254 14.1815 14.6851C14.186 14.6814 14.1907 14.6777 14.1957 14.6748C14.219 14.6616 14.2378 14.6428 14.2565 14.6241C14.3482 14.533 14.4399 14.4419 14.5312 14.3504C14.5623 14.3192 14.5941 14.2886 14.6174 14.2506C14.6235 14.2407 14.6326 14.2327 14.6404 14.224C14.6601 14.2022 14.6808 14.1816 14.6971 14.1566C14.7131 14.1322 14.7323 14.1098 14.7496 14.086C14.7736 14.0527 14.7957 14.0181 14.8215 13.986C14.8398 13.9631 14.8562 13.9384 14.8703 13.9126C14.8886 13.8791 14.9094 13.8471 14.9306 13.8154C14.9502 13.7859 14.9675 13.7553 14.9836 13.724C14.9972 13.698 15.0101 13.6714 15.0256 13.6466C15.0569 13.5966 15.0836 13.5445 15.1039 13.4891C15.111 13.4699 15.1203 13.4514 15.1295 13.433C15.165 13.362 15.1933 13.2878 15.2195 13.2131C15.245 13.141 15.268 13.0682 15.2919 12.9957C15.2983 12.9761 15.3047 12.9566 15.3098 12.9366C15.3264 12.8712 15.3422 12.8057 15.3585 12.7401C15.3663 12.7088 15.3664 12.676 15.3778 12.6453C15.3808 12.6372 15.3811 12.628 15.3817 12.6192C15.3834 12.5928 15.3889 12.5671 15.3945 12.5412C15.4005 12.5126 15.4006 12.4829 15.4039 12.4537C15.4048 12.445 15.4075 12.4365 15.4099 12.428C15.4149 12.4109 15.4168 12.3935 15.4172 12.3758C15.4177 12.3523 15.4183 12.3288 15.4188 12.3053C15.4192 12.2818 15.42 12.2583 15.4272 12.2355C15.4333 12.2156 15.4345 12.1951 15.4345 12.1745C15.4346 12.0628 15.4345 11.9511 15.4345 11.8395ZM14.2185 12.2043C14.2182 12.2279 14.2166 12.2512 14.2098 12.2741C14.2064 12.2853 14.2044 12.297 14.2032 12.3086C14.2011 12.329 14.2003 12.3496 14.1985 12.3701C14.198 12.3759 14.1962 12.3816 14.1949 12.3873C14.1824 12.4416 14.1726 12.4964 14.1594 12.5506C14.137 12.642 14.1046 12.7303 14.0756 12.8196C14.0504 12.8758 14.0317 12.9348 14.0023 12.9893C13.9884 13.0152 13.9753 13.0415 13.9629 13.0682C13.9382 13.1217 13.9024 13.1688 13.8756 13.221C13.8428 13.2662 13.8164 13.3157 13.7795 13.3579C13.7505 13.4059 13.7079 13.4433 13.6772 13.4901C13.6677 13.5046 13.654 13.5165 13.6417 13.5291C13.5961 13.575 13.5498 13.62 13.505 13.6667C13.454 13.72 13.3957 13.7642 13.3368 13.808C13.2967 13.8377 13.2572 13.8682 13.215 13.895C13.1432 13.9407 13.0714 13.9862 12.9944 14.0231C12.9732 14.0332 12.9521 14.0437 12.9313 14.0546C12.8764 14.083 12.8185 14.1041 12.7607 14.1255C12.7056 14.1458 12.6492 14.1623 12.5937 14.1813C12.5713 14.1889 12.5483 14.1934 12.5257 14.1992C12.5028 14.205 12.4801 14.2101 12.4571 14.2145C12.4168 14.2221 12.3765 14.2298 12.3364 14.2385C12.3132 14.2435 12.2904 14.2478 12.2668 14.2482C12.2373 14.2486 12.2083 14.2509 12.1797 14.2595C12.166 14.2635 12.1508 14.2644 12.1362 14.2645C12.0393 14.265 11.9424 14.2649 11.8454 14.2649C11.8248 14.2649 11.8044 14.263 11.7846 14.2568C11.7676 14.2514 11.7501 14.2494 11.7324 14.249C11.6972 14.2484 11.6619 14.2474 11.6282 14.2352C11.6227 14.2332 11.6166 14.2323 11.6108 14.2324C11.572 14.2332 11.5355 14.2208 11.4986 14.2118C11.4359 14.1963 11.3731 14.1818 11.3113 14.1631C11.2578 14.1468 11.2061 14.1259 11.1544 14.1054C11.0834 14.0772 11.0124 14.0493 10.9454 14.0122C10.9095 13.9924 10.8737 13.9722 10.8389 13.9503C10.7693 13.9065 10.7003 13.862 10.6346 13.8125C10.5971 13.7841 10.5595 13.7562 10.5264 13.7225C10.5244 13.7204 10.5223 13.7183 10.5198 13.7168C10.467 13.6835 10.4268 13.6361 10.3826 13.5932C10.3742 13.585 10.3662 13.5764 10.3578 13.5682C10.3323 13.5437 10.3109 13.5159 10.2898 13.4876C10.2706 13.4618 10.2458 13.4402 10.2259 13.4149C10.1843 13.3624 10.1106 13.2551 10.0702 13.1908C10.0608 13.1759 10.0523 13.1604 10.0441 13.1448C10.0305 13.1188 10.0167 13.0929 10.0005 13.0683C9.98123 13.0388 9.96624 13.0068 9.95334 12.9739C9.94589 12.9548 9.93852 12.9356 9.92978 12.917C9.89853 12.8505 9.87321 12.7816 9.84893 12.7124C9.83434 12.6707 9.82545 12.6275 9.81359 12.5851C9.80413 12.5512 9.79836 12.5164 9.78915 12.4824C9.78218 12.4568 9.77633 12.4313 9.77473 12.4047C9.77384 12.3902 9.7708 12.3755 9.76679 12.3615C9.76102 12.3415 9.75926 12.3212 9.7579 12.3007C9.75677 12.2831 9.75694 12.2649 9.75205 12.2483C9.74291 12.2167 9.74115 12.1848 9.74115 12.1523C9.74123 12.0583 9.74115 11.9643 9.74123 11.8703C9.74123 11.8438 9.74219 11.8175 9.75044 11.7918C9.75686 11.772 9.75734 11.7514 9.75774 11.7308C9.7583 11.7014 9.76142 11.6725 9.76976 11.6439C9.77633 11.6215 9.77681 11.5974 9.78234 11.5747C9.78731 11.5547 9.79043 11.5344 9.7946 11.5144C9.80229 11.4771 9.8111 11.4399 9.82224 11.4034C9.84115 11.3417 9.86031 11.2798 9.88298 11.2194C9.90462 11.1618 9.92585 11.1038 9.95462 11.0491C9.97233 11.0152 9.98884 10.9807 10.0061 10.9467C10.018 10.9231 10.0283 10.8983 10.0428 10.8765C10.0721 10.8324 10.095 10.7845 10.1265 10.7418C10.1526 10.7065 10.1784 10.6708 10.2047 10.6355C10.224 10.6097 10.2432 10.5836 10.2643 10.5592C10.2853 10.5348 10.3086 10.5122 10.3313 10.4893C10.3498 10.4703 10.3676 10.4509 10.382 10.4285C10.3916 10.4136 10.4042 10.4008 10.4192 10.3914C10.4444 10.3757 10.4651 10.3549 10.4862 10.3344C10.5051 10.316 10.5241 10.2977 10.5434 10.2795C10.5518 10.2714 10.5602 10.2628 10.5697 10.2561C10.6204 10.221 10.6685 10.1827 10.72 10.1486C10.9057 10.0258 10.8463 10.0625 11.0243 9.97207C11.1321 9.91742 11.2462 9.87927 11.3608 9.84241C11.4241 9.83015 11.485 9.80683 11.5496 9.80034C11.5833 9.78936 11.6182 9.78496 11.6534 9.78255C11.6621 9.78199 11.6707 9.77935 11.6791 9.7767C11.6989 9.77029 11.7193 9.76853 11.74 9.76813C11.7605 9.76765 11.7811 9.76717 11.8016 9.76669C11.8193 9.76629 11.8368 9.76492 11.8538 9.75971C11.8766 9.75266 11.9 9.7513 11.9235 9.7513C11.9588 9.7513 11.994 9.7513 12.0292 9.75122C12.0558 9.75122 12.0821 9.75218 12.1078 9.76012C12.1248 9.76532 12.1423 9.76637 12.16 9.76677C12.1805 9.76717 12.2011 9.76741 12.2216 9.76821C12.2334 9.76869 12.2457 9.76805 12.2567 9.77133C12.2907 9.78175 12.3264 9.78143 12.3607 9.78856C12.4209 9.80114 12.4814 9.81268 12.541 9.82783C12.6123 9.84586 12.6823 9.86781 12.751 9.8933C12.8087 9.91477 12.8666 9.93617 12.9214 9.96486C12.9553 9.98249 12.9893 9.99988 13.0239 10.016C13.0666 10.0358 13.1854 10.1069 13.2284 10.1368C13.2645 10.162 13.2995 10.1887 13.3348 10.2149C13.3443 10.2218 13.3525 10.2307 13.3624 10.2367C13.3905 10.2536 13.4135 10.2761 13.4368 10.2985C13.458 10.3188 13.4795 10.3385 13.5038 10.3554C13.5332 10.3756 13.5949 10.438 13.6154 10.4675C13.6307 10.4893 13.6482 10.5089 13.6666 10.5278C13.6912 10.5531 13.7159 10.5782 13.734 10.6089C13.7369 10.6139 13.7409 10.6185 13.7448 10.6228C13.8056 10.6875 13.8476 10.7656 13.8974 10.8381C13.9106 10.8573 13.9197 10.8794 13.9305 10.9003C13.9454 10.9289 13.9599 10.9578 13.9781 10.9846C13.9879 10.9991 13.9966 11.0151 14.0021 11.0316C14.0133 11.0652 14.0305 11.096 14.0438 11.1286C14.0781 11.2129 14.1142 11.2965 14.1341 11.3859C14.1385 11.4059 14.1454 11.4254 14.1519 11.4449C14.1592 11.4673 14.1646 11.4899 14.1678 11.5134C14.171 11.5365 14.1787 11.559 14.1826 11.5821C14.1861 11.6023 14.1882 11.6227 14.1939 11.6426C14.1979 11.6566 14.2 11.6714 14.2009 11.686C14.2026 11.7153 14.2048 11.7443 14.2129 11.773C14.2176 11.7897 14.2181 11.8078 14.2184 11.8253C14.2195 11.89 14.2198 11.9547 14.2204 12.0167C14.2197 12.0809 14.2192 12.1426 14.2185 12.2043Z" fill="#9387A8"/>
<path d="M16.6233 7.93469C16.6235 7.96707 16.6208 7.99872 16.6125 8.03053C16.6037 8.06451 16.6003 8.09968 16.5909 8.13382C16.5847 8.15658 16.5788 8.17909 16.5689 8.20057C16.5676 8.20321 16.5664 8.20586 16.5652 8.20858C16.5531 8.23527 16.5472 8.26467 16.5312 8.28968C16.5058 8.32926 16.4801 8.36853 16.4537 8.40739C16.4455 8.41941 16.4349 8.42999 16.4247 8.44048C16.398 8.46781 16.3707 8.49449 16.344 8.52182C16.2747 8.59249 16.1909 8.63977 16.0991 8.67383C16.055 8.69017 16.0105 8.7054 15.964 8.71309C15.936 8.72399 15.9067 8.72543 15.8772 8.72551C15.8537 8.72559 15.8302 8.72551 15.8067 8.72551V8.72591C15.792 8.72591 15.7773 8.72599 15.7626 8.72591C15.69 8.72527 15.6899 8.72575 15.6148 8.707C15.5377 8.68769 15.4632 8.6606 15.3941 8.62054C15.351 8.59546 15.3093 8.56797 15.2743 8.53159C15.2499 8.50611 15.2246 8.48151 15.1994 8.45691C15.1548 8.41332 15.1208 8.36227 15.0918 8.3073C15.0588 8.24472 15.0315 8.18006 15.0123 8.11186C15.0075 8.0948 15.0031 8.07797 15.0018 8.06026C15.0007 8.0456 15.0009 8.03029 14.9964 8.01667C14.9839 7.97949 14.985 7.94134 14.9849 7.9032C14.9848 7.88854 14.9849 7.87379 14.9853 7.85913C14.9856 7.85032 14.9856 7.84134 14.9876 7.83285C15.0008 7.77571 15.0084 7.7173 15.0249 7.66096C15.0432 7.59854 15.0705 7.54013 15.1051 7.48516C15.1098 7.4777 15.1152 7.47065 15.12 7.46336C15.1779 7.37538 15.1779 7.37546 15.2477 7.30702C15.2666 7.28843 15.2858 7.27048 15.3086 7.25654C15.3211 7.24901 15.3318 7.23859 15.3434 7.22962C15.3504 7.22425 15.3571 7.21824 15.3647 7.21407C15.4165 7.18627 15.4675 7.15702 15.5233 7.13771C15.5732 7.1204 15.623 7.10261 15.6763 7.09812C15.7101 7.08538 15.7453 7.08554 15.7807 7.08562C15.7983 7.0857 15.8159 7.08586 15.8336 7.08562C15.8659 7.0853 15.8981 7.08626 15.9293 7.09724C15.9374 7.10012 15.9465 7.10125 15.9552 7.10173C15.979 7.10317 16.0011 7.11118 16.0237 7.11735C16.0981 7.13747 16.1662 7.17176 16.2334 7.20822C16.2437 7.21375 16.2531 7.22088 16.2626 7.22785C16.2697 7.23298 16.2756 7.23995 16.2831 7.24452C16.3363 7.27729 16.3772 7.32377 16.4206 7.36752C16.4352 7.38227 16.4445 7.40102 16.4576 7.41672C16.5147 7.4858 16.5506 7.56585 16.5796 7.64943C16.5931 7.68821 16.6065 7.72715 16.6094 7.76874C16.61 7.7774 16.6131 7.78589 16.6157 7.7943C16.6209 7.81137 16.6228 7.82884 16.6229 7.84655C16.6232 7.87588 16.6232 7.90529 16.6233 7.93469Z" fill="#9387A8"/>
</g>
<defs>
<clipPath id="clip0_985_25337">
<rect width="24" height="24" rx="12" fill="white"/>
</clipPath>
</defs>
</svg>
