<svg width="25" height="24" viewBox="0 0 25 24" fill="none" xmlns="http://www.w3.org/2000/svg">
<g clip-path="url(#clip0_3510_16683)">
<path d="M20.8175 4.49197C19.2875 3.80197 17.6475 3.29197 15.9325 3.00197C15.9172 2.99904 15.9014 3.00093 15.8872 3.00738C15.8731 3.01383 15.8613 3.02452 15.8535 3.03797C15.6435 3.40697 15.4095 3.88797 15.2455 4.26797C13.4266 3.99621 11.5774 3.99621 9.75848 4.26797C9.57582 3.84683 9.36983 3.4362 9.14148 3.03797C9.13374 3.02436 9.12203 3.01342 9.10792 3.00663C9.0938 2.99984 9.07795 2.99752 9.06248 2.99997C7.34848 3.28997 5.70848 3.79997 4.17748 4.49097C4.16431 4.4965 4.15314 4.50592 4.14548 4.51797C1.03348 9.09297 0.180481 13.555 0.599481 17.961C0.600647 17.9718 0.603996 17.9822 0.609326 17.9917C0.614655 18.0011 0.621853 18.0094 0.630481 18.016C2.44687 19.3384 4.47282 20.3458 6.62348 20.996C6.63847 21.0006 6.65451 21.0006 6.66949 20.9959C6.68448 20.9913 6.69772 20.9823 6.70748 20.97C7.17028 20.351 7.58038 19.6944 7.93348 19.007C7.93838 18.9976 7.94121 18.9872 7.94176 18.9766C7.94232 18.9661 7.9406 18.9555 7.93671 18.9456C7.93282 18.9358 7.92686 18.9268 7.91923 18.9195C7.9116 18.9121 7.90248 18.9065 7.89248 18.903C7.24649 18.6597 6.62057 18.3661 6.02048 18.025C6.0097 18.0188 6.00061 18.0101 5.99404 17.9995C5.98746 17.989 5.98361 17.977 5.98281 17.9646C5.98202 17.9522 5.98432 17.9398 5.98949 17.9286C5.99467 17.9173 6.00257 17.9075 6.01248 17.9C6.13848 17.807 6.26448 17.71 6.38448 17.613C6.39528 17.6043 6.40829 17.5987 6.42206 17.5969C6.43584 17.5952 6.44983 17.5973 6.46248 17.603C10.3895 19.367 14.6425 19.367 18.5235 17.603C18.5362 17.5969 18.5503 17.5946 18.5643 17.5961C18.5782 17.5977 18.5915 17.6032 18.6025 17.612C18.7225 17.71 18.8475 17.807 18.9745 17.9C18.9845 17.9073 18.9925 17.917 18.9979 17.9282C19.0032 17.9394 19.0057 17.9517 19.0051 17.9641C19.0045 17.9765 19.0008 17.9885 18.9945 17.9991C18.9881 18.0098 18.9791 18.0186 18.9685 18.025C18.3705 18.369 17.7485 18.66 17.0955 18.902C17.0855 18.9056 17.0763 18.9114 17.0687 18.9188C17.061 18.9263 17.0551 18.9353 17.0512 18.9452C17.0473 18.9551 17.0456 18.9658 17.0462 18.9764C17.0467 18.9871 17.0496 18.9975 17.0545 19.007C17.4145 19.694 17.8265 20.348 18.2795 20.969C18.2889 20.9817 18.302 20.9912 18.3171 20.9963C18.3321 21.0013 18.3483 21.0015 18.3635 20.997C20.5178 20.3486 22.5471 19.3407 24.3655 18.016C24.3744 18.0098 24.3818 18.0017 24.3873 17.9924C24.3928 17.9831 24.3963 17.9727 24.3975 17.962C24.8975 12.868 23.5595 8.44197 20.8485 4.51997C20.8418 4.50723 20.8308 4.49729 20.8175 4.49197ZM8.52048 15.278C7.33848 15.278 6.36348 14.209 6.36348 12.898C6.36348 11.586 7.31948 10.518 8.52048 10.518C9.73048 10.518 10.6965 11.595 10.6775 12.898C10.6775 14.21 9.72148 15.278 8.52048 15.278ZM16.4955 15.278C15.3125 15.278 14.3385 14.209 14.3385 12.898C14.3385 11.586 15.2935 10.518 16.4955 10.518C17.7055 10.518 18.6715 11.595 18.6525 12.898C18.6525 14.21 17.7065 15.278 16.4955 15.278Z" fill="white"/>
</g>
<defs>
<clipPath id="clip0_3510_16683">
<rect width="24" height="24" fill="white" transform="translate(0.5)"/>
</clipPath>
</defs>
</svg>
