<svg width="64" height="65" viewBox="0 0 64 65" fill="none" xmlns="http://www.w3.org/2000/svg">
<path d="M1.875 11.875C2.9105 11.875 3.75 11.0355 3.75 10V4.25H9.5C10.5355 4.25 11.375 3.4105 11.375 2.375C11.375 1.3395 10.5355 0.5 9.5 0.5H1.875C0.8395 0.5 0 1.3395 0 2.375V10C0 11.0355 0.8395 11.875 1.875 11.875Z" fill="#9453FF"/>
<path d="M1.875 64.5H9.5C10.5355 64.5 11.375 63.6605 11.375 62.625C11.375 61.5895 10.5355 60.75 9.5 60.75H3.75V55C3.75 53.9645 2.9105 53.125 1.875 53.125C0.8395 53.125 0 53.9645 0 55V62.625C0 63.6605 0.8395 64.5 1.875 64.5Z" fill="#9453FF"/>
<path d="M62.125 11.875C63.1605 11.875 64 11.0355 64 10V2.375C64 1.3395 63.1605 0.5 62.125 0.5H54.5C53.4645 0.5 52.625 1.3395 52.625 2.375C52.625 3.4105 53.4645 4.25 54.5 4.25H60.25V10C60.25 11.0355 61.0895 11.875 62.125 11.875Z" fill="#9453FF"/>
<path d="M62.125 53.125C61.0895 53.125 60.25 53.9645 60.25 55V60.75H54.5C53.4645 60.75 52.625 61.5895 52.625 62.625C52.625 63.6605 53.4645 64.5 54.5 64.5H62.125C63.1605 64.5 64 63.6605 64 62.625V55C64 53.9645 63.1605 53.125 62.125 53.125Z" fill="#9453FF"/>
<path d="M32 45.625C39.2371 45.625 45.125 39.7371 45.125 32.5C45.125 25.2629 39.2371 19.375 32 19.375C24.7629 19.375 18.875 25.2629 18.875 32.5C18.875 39.7371 24.7629 45.625 32 45.625ZM32 23.125C37.1694 23.125 41.375 27.3306 41.375 32.5C41.375 37.6694 37.1694 41.875 32 41.875C26.8306 41.875 22.625 37.6694 22.625 32.5C22.625 27.3306 26.8306 23.125 32 23.125Z" fill="#9453FF"/>
<path d="M32 38.125C35.1016 38.125 37.625 35.6016 37.625 32.5C37.625 29.3984 35.1016 26.875 32 26.875C28.8984 26.875 26.375 29.3984 26.375 32.5C26.375 35.6016 28.8984 38.125 32 38.125ZM32 30.625C33.0339 30.625 33.875 31.4661 33.875 32.5C33.875 33.5339 33.0339 34.375 32 34.375C30.9661 34.375 30.125 33.5339 30.125 32.5C30.125 31.4661 30.9661 30.625 32 30.625Z" fill="#9453FF"/>
<path d="M9.50297 43.2976C15.827 48.7268 23.6376 53.125 32.0001 53.125C40.363 53.125 48.1737 48.7262 54.4972 43.2976C60.0617 38.5206 63.5008 33.7972 63.6446 33.5985C64.1187 32.9427 64.1187 32.057 63.6446 31.4014C63.501 31.2026 60.0617 26.4792 54.4972 21.7022C48.1732 16.2732 40.3626 11.875 32.0001 11.875C23.6372 11.875 15.8265 16.2738 9.50297 21.7024C3.93847 26.4794 0.499344 31.2028 0.355594 31.4015C-0.118531 32.0573 -0.118531 32.943 0.355594 33.5986C0.499344 33.7973 3.93859 38.5208 9.50297 43.2976ZM32.0001 15.625C39.9592 15.625 47.2646 20.4479 51.9917 24.4939C55.6932 27.662 58.4428 30.869 59.7533 32.4994C58.4607 34.1052 55.7662 37.244 52.1252 40.3833C46.9116 44.8785 39.7576 49.375 32.0001 49.375C24.041 49.375 16.7356 44.5521 12.0085 40.5061C8.30672 37.3378 5.55697 34.1306 4.24684 32.5006C5.53947 30.8948 8.23409 27.7561 11.8751 24.6168C17.0886 20.1215 24.2426 15.625 32.0001 15.625Z" fill="#9453FF"/>
</svg>
