<svg width="20" height="20" viewBox="0 0 20 20" fill="none" xmlns="http://www.w3.org/2000/svg">
<path d="M9.97396 1.66675C5.37396 1.66675 1.64062 5.40008 1.64062 10.0001C1.64062 14.6001 5.37396 18.3334 9.97396 18.3334C14.574 18.3334 18.3073 14.6001 18.3073 10.0001C18.3073 5.40008 14.5823 1.66675 9.97396 1.66675ZM12.474 11.8584L10.0573 13.2501C9.75729 13.4251 9.42396 13.5084 9.09896 13.5084C8.76562 13.5084 8.44063 13.4251 8.14062 13.2501C7.54063 12.9001 7.18229 12.2834 7.18229 11.5834V8.79175C7.18229 8.10008 7.54063 7.47508 8.14062 7.12508C8.74062 6.77508 9.45729 6.77508 10.0656 7.12508L12.4823 8.51675C13.0823 8.86675 13.4406 9.48342 13.4406 10.1834C13.4406 10.8834 13.0823 11.5084 12.474 11.8584Z" fill="#554766"/>
</svg>
